<svg width="24" height="25" viewBox="0 0 24 25" fill="none" xmlns="http://www.w3.org/2000/svg">
<g id="helpdesk 1" clip-path="url(#clip0_24_623)">
<g id="Group">
<path id="Vector" opacity="0.968" fill-rule="evenodd" clip-rule="evenodd" d="M23.9766 18.3359C23.9766 18.8984 23.9766 19.4609 23.9766 20.0234C23.6831 21.2623 22.9175 22.0514 21.6797 22.3906C18.4464 22.4447 15.212 22.4681 11.9766 22.4609C8.74111 22.4681 5.50673 22.4447 2.27344 22.3906C1.05667 22.0567 0.291052 21.2833 -0.0234375 20.0703C-0.0234375 19.4922 -0.0234375 18.914 -0.0234375 18.3359C0.0588975 18.1675 0.183898 18.0347 0.351562 17.9375C0.628439 17.8737 0.909689 17.8503 1.19531 17.8672C1.1875 14.2734 1.19531 10.6797 1.21875 7.08594C1.49171 5.89114 2.2339 5.19585 3.44531 5C3.82031 4.98438 4.19531 4.96875 4.57031 4.95313C4.77009 3.55259 5.56697 2.74009 6.96094 2.51563C10.3047 2.48437 13.6485 2.48437 16.9922 2.51563C18.3862 2.74009 19.183 3.55259 19.3828 4.95313C19.7578 4.96875 20.1328 4.98438 20.5078 5C21.7192 5.19585 22.4614 5.89114 22.7344 7.08594C22.7578 10.6797 22.7656 14.2734 22.7578 17.8672C23.0434 17.8503 23.3247 17.8737 23.6016 17.9375C23.7692 18.0347 23.8943 18.1675 23.9766 18.3359ZM7.05469 3.94531C10.336 3.9375 13.6172 3.94531 16.8984 3.96875C17.4525 4.08534 17.7885 4.42127 17.9062 4.97656C17.9375 7.39845 17.9375 9.8203 17.9062 12.2422C17.7891 12.7969 17.4531 13.1328 16.8984 13.25C15.7266 13.2656 14.5547 13.2813 13.3828 13.2969C13.3203 13.3281 13.2578 13.3594 13.1953 13.3906C12.7963 13.8286 12.3901 14.2583 11.9766 14.6797C11.563 14.2583 11.1568 13.8286 10.7578 13.3906C10.6953 13.3594 10.6328 13.3281 10.5703 13.2969C9.39844 13.2813 8.22656 13.2656 7.05469 13.25C6.50002 13.1328 6.16406 12.7969 6.04688 12.2422C6.01561 9.8203 6.01561 7.39845 6.04688 4.97656C6.17316 4.42065 6.50911 4.07691 7.05469 3.94531ZM3.53906 6.42969C3.88281 6.42969 4.22656 6.42969 4.57031 6.42969C4.5625 8.38288 4.57031 10.336 4.59375 12.2891C4.75364 13.527 5.43333 14.316 6.63281 14.6563C7.77211 14.7149 8.91272 14.7462 10.0547 14.75C10.5374 15.3109 11.0374 15.8578 11.5547 16.3906C11.8359 16.5469 12.1172 16.5469 12.3984 16.3906C12.9157 15.8578 13.4157 15.3109 13.8984 14.75C15.0404 14.7462 16.181 14.7149 17.3203 14.6563C18.5198 14.316 19.1995 13.527 19.3594 12.2891C19.3828 10.336 19.3906 8.38288 19.3828 6.42969C19.7774 6.41066 20.168 6.4341 20.5547 6.5C20.9104 6.65258 21.1526 6.91039 21.2812 7.27344C21.3047 10.8047 21.3125 14.3359 21.3047 17.8672C15.0859 17.8672 8.8672 17.8672 2.64844 17.8672C2.64062 14.3359 2.64844 10.8047 2.67188 7.27344C2.832 6.85545 3.12106 6.5742 3.53906 6.42969ZM1.38281 19.3203C8.44533 19.3203 15.5078 19.3203 22.5703 19.3203C22.5654 20.2453 22.1123 20.8 21.2109 20.9844C15.0547 21.0156 8.89842 21.0156 2.74219 20.9844C1.84081 20.8 1.38768 20.2453 1.38281 19.3203Z" fill="#353C78"/>
</g>
<g id="Group_2">
<path id="Vector_2" opacity="0.928" fill-rule="evenodd" clip-rule="evenodd" d="M11.9765 5.30469C12.693 5.4883 12.8727 5.91017 12.5155 6.57031C12.2345 6.77028 11.9298 6.80933 11.6015 6.6875C11.2004 6.35413 11.1457 5.9713 11.4374 5.53906C11.5966 5.40055 11.7763 5.32245 11.9765 5.30469Z" fill="#353C78"/>
</g>
<g id="Group_3">
<path id="Vector_3" opacity="0.978" fill-rule="evenodd" clip-rule="evenodd" d="M11.7891 7.64854C12.1979 7.59111 12.4869 7.74739 12.6563 8.11729C12.6875 9.22668 12.6875 10.336 12.6563 11.4454C12.4148 11.8661 12.0632 11.9833 11.6016 11.797C11.4622 11.7142 11.3606 11.5971 11.2969 11.4454C11.2656 10.336 11.2656 9.22668 11.2969 8.11729C11.3956 7.88558 11.5597 7.72935 11.7891 7.64854Z" fill="#353C78"/>
</g>
</g>
<defs>
<clipPath id="clip0_24_623">
<rect width="24" height="24" fill="white" transform="translate(0 0.5)"/>
</clipPath>
</defs>
</svg>
