<svg width="24" height="24" viewBox="0 0 24 24" fill="none" xmlns="http://www.w3.org/2000/svg">
<g id="door (1) 1">
<g id="Group">
<path id="Vector" opacity="0.968" fill-rule="evenodd" clip-rule="evenodd" d="M12.7735 1.19526C13.8016 1.17392 14.45 1.6583 14.7188 2.64838C14.7501 8.57024 14.7501 14.4921 14.7188 20.414C14.4287 21.751 13.6084 22.5245 12.2579 22.7343C8.7735 22.7656 5.28909 22.7656 1.80473 22.7343C1.21128 22.4855 1.06284 22.0714 1.35942 21.4921C1.45788 21.3531 1.59069 21.2671 1.75786 21.2343C2.24198 21.2109 2.72636 21.2031 3.21098 21.2109C3.20317 16.3202 3.21098 11.4296 3.23442 6.539C3.41842 5.52716 3.97311 4.8006 4.89848 4.35932C7.15228 3.4466 9.40228 2.52473 11.6485 1.59369C12.0213 1.43568 12.3963 1.30287 12.7735 1.19526ZM12.9141 2.74213C13.0267 2.73711 13.1127 2.78399 13.1719 2.88275C13.2032 8.66399 13.2032 14.4453 13.1719 20.2265C13.0351 20.7539 12.6991 21.0742 12.1641 21.1874C9.69539 21.2109 7.22667 21.2187 4.75786 21.2109C4.73475 16.3176 4.75819 11.427 4.82817 6.539C4.93969 6.20886 5.15062 5.96666 5.46098 5.81244C7.95572 4.80154 10.4401 3.77809 12.9141 2.74213Z" fill="#353C78"/>
</g>
<g id="Group_2">
<path id="Vector_2" opacity="0.969" fill-rule="evenodd" clip-rule="evenodd" d="M15.9609 5.22657C16.8048 5.21874 17.6486 5.22657 18.4922 5.25001C19.745 5.53402 20.4871 6.30746 20.7188 7.57032C20.7422 12.1171 20.75 16.664 20.7422 21.2109C21.2268 21.2032 21.7112 21.2109 22.1953 21.2344C22.6685 21.4386 22.8325 21.7901 22.6875 22.2891C22.5784 22.5198 22.3987 22.6683 22.1484 22.7344C19.7109 22.7656 17.2734 22.7656 14.8359 22.7344C15.2182 22.2967 15.515 21.8045 15.7266 21.2578C16.8824 21.2109 18.0386 21.1953 19.1953 21.2109C19.2031 16.7109 19.1953 12.2109 19.1719 7.71094C19.0468 7.24937 18.7578 6.94468 18.3047 6.79688C17.5252 6.73168 16.744 6.70824 15.9609 6.72657C15.9609 6.22655 15.9609 5.72658 15.9609 5.22657Z" fill="#353C78"/>
</g>
<g id="Group_3">
<path id="Vector_3" opacity="0.952" fill-rule="evenodd" clip-rule="evenodd" d="M10.8047 10.1953C11.2505 10.1639 11.5552 10.3514 11.7188 10.7578C11.75 11.5703 11.75 12.3828 11.7188 13.1953C11.5999 13.5521 11.3499 13.7396 10.9688 13.7578C10.5807 13.7205 10.3307 13.5174 10.2188 13.1484C10.1875 12.3671 10.1875 11.5859 10.2188 10.8046C10.2976 10.4837 10.4929 10.2806 10.8047 10.1953Z" fill="#353C78"/>
</g>
</g>
</svg>
