<svg width="25" height="25" viewBox="0 0 25 25" fill="none" xmlns="http://www.w3.org/2000/svg">
<g id="faq (3) 2" clip-path="url(#clip0_24_678)">
<g id="Group">
<path id="Vector" opacity="0.991" fill-rule="evenodd" clip-rule="evenodd" d="M5.04419 0.476562C9.26294 0.476562 13.4817 0.476562 17.7004 0.476562C17.7974 0.51757 17.8911 0.572258 17.9817 0.640625C19.2395 1.89844 20.4973 3.15625 21.7551 4.41406C21.8226 4.49725 21.8695 4.591 21.8958 4.69531C21.927 10.5078 21.927 16.3203 21.8958 22.1328C21.6138 23.4069 20.8404 24.1881 19.5754 24.4766C14.7317 24.4766 9.88793 24.4766 5.04419 24.4766C3.77922 24.1881 3.00578 23.4069 2.72388 22.1328C2.69263 15.6953 2.69263 9.2578 2.72388 2.82031C3.00578 1.54625 3.77922 0.764995 5.04419 0.476562ZM5.55982 1.88281C9.27855 1.88281 12.9973 1.88281 16.7161 1.88281C16.6979 2.7594 16.7213 3.6344 16.7864 4.50781C16.9661 5.0625 17.3333 5.4297 17.8879 5.60938C18.7628 5.63281 19.6378 5.64064 20.5129 5.63281C20.5208 10.961 20.5129 16.2891 20.4895 21.6172C20.3879 22.4688 19.9114 22.9453 19.0598 23.0469C14.4492 23.093 9.83983 23.0773 5.23169 23C4.55177 22.7888 4.18458 22.3278 4.13013 21.6172C4.09888 15.5234 4.09888 9.42969 4.13013 3.33594C4.24005 2.48387 4.7166 1.9995 5.55982 1.88281ZM18.1692 2.96094C18.5973 3.36552 19.0191 3.77958 19.4348 4.20312C19.0419 4.24076 18.6513 4.23295 18.2629 4.17969C18.2305 4.15506 18.2071 4.12382 18.1926 4.08594C18.1692 3.71126 18.1614 3.33626 18.1692 2.96094Z" fill="#353C78"/>
</g>
<g id="Group_2">
<path id="Vector_2" opacity="0.963" fill-rule="evenodd" clip-rule="evenodd" d="M7.24725 8.53907C7.93491 8.53124 8.62243 8.53907 9.30975 8.56251C9.77316 8.84558 9.87469 9.22841 9.61444 9.71094C9.5333 9.81018 9.43172 9.88049 9.30975 9.92188C8.71275 9.9246 8.11899 9.95587 7.5285 10.0156C7.49611 10.0656 7.47267 10.1204 7.45819 10.1797C7.4348 10.3979 7.42697 10.6166 7.43475 10.8359C8.04432 10.8281 8.65369 10.8359 9.26288 10.8594C9.57483 10.9847 9.74672 11.2191 9.7785 11.5625C9.7418 11.9429 9.53864 12.1772 9.16913 12.2656C8.59121 12.2891 8.0131 12.2969 7.43475 12.2891C7.44258 12.8986 7.43475 13.508 7.41132 14.1172C7.19419 14.5372 6.85824 14.67 6.4035 14.5156C6.15844 14.3774 6.02564 14.1665 6.00507 13.8828C5.96175 12.5066 5.97741 11.1316 6.05194 9.75782C6.24024 9.13991 6.63867 8.73365 7.24725 8.53907Z" fill="#353C78"/>
</g>
<g id="Group_3">
<path id="Vector_3" opacity="0.965" fill-rule="evenodd" clip-rule="evenodd" d="M11.5599 8.53901C12.1097 8.5197 12.6566 8.54314 13.2005 8.60933C13.6689 8.7965 13.9736 9.13245 14.1146 9.61714C14.1905 11.0687 14.2062 12.5218 14.1615 13.9765C14.0063 14.4955 13.6704 14.6752 13.1536 14.5156C12.9583 14.4453 12.8255 14.3125 12.7552 14.1171C12.7318 13.508 12.7239 12.8986 12.7318 12.289C12.4349 12.289 12.138 12.289 11.8411 12.289C11.849 12.8986 11.8411 13.508 11.8177 14.1171C11.5939 14.5252 11.258 14.658 10.8099 14.5156C10.5648 14.3773 10.432 14.1664 10.4115 13.8828C10.3673 12.4751 10.3829 11.0688 10.4583 9.66401C10.6153 9.07737 10.9825 8.70237 11.5599 8.53901ZM11.9349 9.94526C11.9216 9.98225 11.8982 10.0135 11.8646 10.039C11.8412 10.3042 11.8334 10.5698 11.8411 10.8359C12.138 10.8359 12.4349 10.8359 12.7318 10.8359C12.7396 10.5698 12.7317 10.3042 12.7083 10.039C12.6849 10.0156 12.6615 9.99214 12.638 9.9687C12.4042 9.94531 12.1698 9.93748 11.9349 9.94526Z" fill="#353C78"/>
</g>
<g id="Group_4">
<path id="Vector_4" opacity="0.966" fill-rule="evenodd" clip-rule="evenodd" d="M16.013 8.53905C16.4507 8.53127 16.8882 8.53905 17.3255 8.56249C17.9634 8.74727 18.3618 9.16131 18.5208 9.80467C18.5442 10.9139 18.552 12.0233 18.5442 13.1328C19.106 13.0621 19.4341 13.3043 19.5286 13.8594C19.4913 14.2402 19.2882 14.4746 18.9192 14.5625C17.9328 14.6066 16.9484 14.591 15.9661 14.5156C15.3337 14.3053 14.951 13.8756 14.8176 13.2265C14.7864 12.1015 14.7864 10.9765 14.8176 9.85155C14.9662 9.17988 15.3646 8.74235 16.013 8.53905ZM16.4348 9.9453C16.3716 9.97746 16.3169 10.0243 16.2708 10.0859C16.2395 11.0703 16.2395 12.0547 16.2708 13.039C16.2942 13.0625 16.3176 13.0859 16.3411 13.1094C16.5906 13.1328 16.8406 13.1406 17.0911 13.1328C17.0989 12.1014 17.0911 11.0702 17.0676 10.039C16.8664 9.95711 16.6554 9.92585 16.4348 9.9453Z" fill="#353C78"/>
</g>
<g id="Group_5">
<path id="Vector_5" opacity="0.963" fill-rule="evenodd" clip-rule="evenodd" d="M8.7004 16.9766C11.1067 16.9687 13.513 16.9766 15.9191 17C16.5334 17.1739 16.7131 17.5567 16.4582 18.1484C16.3674 18.2706 16.2502 18.3565 16.1066 18.4063C13.5754 18.4375 11.0441 18.4375 8.5129 18.4063C8.12051 18.223 7.9721 17.9183 8.06759 17.4922C8.19185 17.203 8.40279 17.0311 8.7004 16.9766Z" fill="#353C78"/>
</g>
<g id="Group_6">
<path id="Vector_6" opacity="0.961" fill-rule="evenodd" clip-rule="evenodd" d="M10.1066 19.0859C11.5755 19.0781 13.0442 19.0859 14.5129 19.1094C15.1271 19.2833 15.3068 19.6661 15.052 20.2578C14.9611 20.38 14.8439 20.4659 14.7004 20.5156C13.1066 20.5469 11.5129 20.5469 9.91915 20.5156C9.52676 20.3324 9.37835 20.0277 9.47384 19.6016C9.5981 19.3124 9.80904 19.1405 10.1066 19.0859Z" fill="#353C78"/>
</g>
</g>
<defs>
<clipPath id="clip0_24_678">
<rect width="24" height="24" fill="white" transform="translate(0.333252 0.5)"/>
</clipPath>
</defs>
</svg>
