<svg width="25" height="24" viewBox="0 0 25 24" fill="none" xmlns="http://www.w3.org/2000/svg">
<g id="network (3) 1" clip-path="url(#clip0_24_572)">
<g id="Group">
<path id="Vector" opacity="0.975" fill-rule="evenodd" clip-rule="evenodd" d="M24.6433 20.8359C24.6433 21.4922 24.6433 22.1484 24.6433 22.8047C24.5582 22.9912 24.4176 23.124 24.2214 23.2031C21.6551 23.2496 19.0926 23.234 16.5339 23.1562C16.3946 23.0735 16.293 22.9563 16.2292 22.8047C16.187 22.0684 16.2026 21.3341 16.2761 20.6016C16.4557 19.8437 16.8229 19.1952 17.3777 18.6562C15.8108 17.8572 14.2327 17.0837 12.6433 16.3359C11.0468 17.0639 9.46865 17.8295 7.90894 18.6328C8.45808 19.1839 8.82525 19.8401 9.0105 20.6016C9.084 21.3341 9.09961 22.0684 9.05737 22.8047C8.99362 22.9563 8.89205 23.0735 8.75269 23.1562C6.19406 23.234 3.63156 23.2496 1.06519 23.2031C0.869005 23.124 0.72838 22.9912 0.643311 22.8047C0.643311 22.1484 0.643311 21.4922 0.643311 20.8359C0.90572 19.6004 1.57759 18.6551 2.65894 18C2.02158 17.1359 1.87314 16.1906 2.21362 15.1641C2.7125 14.0014 3.59532 13.4076 4.86206 13.3828C6.36206 13.4529 7.29178 14.2185 7.65112 15.6797C7.68239 16.0234 7.68239 16.3672 7.65112 16.7109C7.62272 16.8483 7.58362 16.9811 7.53394 17.1094C7.54954 17.1172 7.5652 17.125 7.58081 17.1328C9.02494 16.425 10.4702 15.7219 11.9167 15.0234C11.9402 13.5391 11.948 12.0548 11.9402 10.5703C10.9088 10.5781 9.87755 10.5703 8.84644 10.5469C8.65111 10.4766 8.51831 10.3438 8.448 10.1484C8.41673 9.49219 8.41673 8.83594 8.448 8.17969C8.69142 6.93375 9.3555 5.98842 10.4402 5.34375C9.80283 4.47964 9.65437 3.53433 9.99487 2.50781C10.4938 1.34511 11.3766 0.751359 12.6433 0.726562C14.1433 0.796683 15.073 1.56231 15.4324 3.02344C15.5623 3.8829 15.367 4.65633 14.8464 5.34375C15.9311 5.98842 16.5952 6.93375 16.8386 8.17969C16.8699 8.83594 16.8699 9.49219 16.8386 10.1484C16.7683 10.3438 16.6355 10.4766 16.4402 10.5469C15.4091 10.5703 14.3778 10.5781 13.3464 10.5703C13.3386 12.0548 13.3464 13.5391 13.3699 15.0234C14.8165 15.7899 16.2774 16.4931 17.7527 17.1328C17.3662 15.7844 17.7256 14.6828 18.8308 13.8281C19.6112 13.3671 20.4394 13.2577 21.3152 13.5C22.3489 13.8775 22.9817 14.604 23.2136 15.6797C23.3435 16.5391 23.1482 17.3126 22.6277 18C23.709 18.6551 24.3809 19.6004 24.6433 20.8359ZM12.3152 2.17969C13.4938 2.13171 14.0485 2.69421 13.9792 3.86719C13.7004 4.6514 13.1457 4.98736 12.3152 4.875C11.531 4.59615 11.195 4.04146 11.3074 3.21094C11.4644 2.68677 11.8004 2.34302 12.3152 2.17969ZM12.2683 6.35156C13.3934 6.20264 14.3074 6.56198 15.0105 7.42969C15.342 7.95853 15.4904 8.53664 15.4558 9.16406C13.5808 9.16406 11.7058 9.16406 9.83081 9.16406C9.84028 7.51547 10.6528 6.57797 12.2683 6.35156ZM4.53394 14.8359C5.71256 14.7879 6.26723 15.3504 6.198 16.5234C5.91914 17.3077 5.36447 17.6436 4.53394 17.5312C3.74972 17.2524 3.41378 16.6977 3.52612 15.8672C3.68316 15.343 4.01909 14.9993 4.53394 14.8359ZM20.0964 14.8359C21.2751 14.7879 21.8297 15.3504 21.7605 16.5234C21.4816 17.3077 20.927 17.6436 20.0964 17.5312C19.3122 17.2524 18.9763 16.6977 19.0886 15.8672C19.2457 15.343 19.5816 14.9993 20.0964 14.8359ZM4.48706 19.0078C5.61211 18.8589 6.52617 19.2182 7.22925 20.0859C7.5607 20.6148 7.70911 21.1929 7.67456 21.8203C5.79956 21.8203 3.92456 21.8203 2.04956 21.8203C2.05903 20.1717 2.87154 19.2342 4.48706 19.0078ZM20.0496 19.0078C21.1746 18.8589 22.0887 19.2182 22.7917 20.0859C23.1232 20.6148 23.2716 21.1929 23.2371 21.8203C21.3621 21.8203 19.4871 21.8203 17.6121 21.8203C17.6215 20.1717 18.434 19.2342 20.0496 19.0078Z" fill="#353C78"/>
</g>
</g>
<defs>
<clipPath id="clip0_24_572">
<rect width="24" height="24" fill="white" transform="translate(0.666748)"/>
</clipPath>
</defs>
</svg>
