<svg width="24" height="24" viewBox="0 0 24 24" fill="none" xmlns="http://www.w3.org/2000/svg">
<g id="padlock (4) 1" clip-path="url(#clip0_24_582)">
<g id="Group">
<path id="Vector" opacity="0.973" fill-rule="evenodd" clip-rule="evenodd" d="M9.82031 -0.0234375C11.2578 -0.0234375 12.6953 -0.0234375 14.1328 -0.0234375C14.3193 0.0616317 14.4521 0.202257 14.5312 0.398438C14.5397 0.847378 14.5631 1.29269 14.6016 1.73438C15.5806 1.98504 16.5025 2.36786 17.3672 2.88281C17.6556 2.61788 17.9368 2.34445 18.2109 2.0625C18.4922 1.90625 18.7734 1.90625 19.0547 2.0625C20 3.00781 20.9453 3.95312 21.8906 4.89844C22.0469 5.17969 22.0469 5.46094 21.8906 5.74219C21.6087 6.01631 21.3353 6.29756 21.0703 6.58594C21.5853 7.45064 21.9681 8.37253 22.2188 9.35156C22.6605 9.39 23.1058 9.41344 23.5547 9.42188C23.7509 9.501 23.8915 9.6338 23.9766 9.82031C23.9766 11.2578 23.9766 12.6953 23.9766 14.1328C23.8915 14.3193 23.7509 14.4521 23.5547 14.5312C23.1058 14.5397 22.6605 14.5631 22.2188 14.6016C21.9681 15.5806 21.5853 16.5025 21.0703 17.3672C21.3353 17.6556 21.6087 17.9368 21.8906 18.2109C22.0469 18.4922 22.0469 18.7734 21.8906 19.0547C20.9453 20 20 20.9453 19.0547 21.8906C18.7734 22.0469 18.4922 22.0469 18.2109 21.8906C17.9368 21.6087 17.6556 21.3353 17.3672 21.0703C16.5025 21.5853 15.5806 21.9681 14.6016 22.2188C14.5631 22.6605 14.5397 23.1058 14.5312 23.5547C14.4521 23.7509 14.3193 23.8915 14.1328 23.9766C12.6953 23.9766 11.2578 23.9766 9.82031 23.9766C9.6338 23.8915 9.501 23.7509 9.42188 23.5547C9.41344 23.1058 9.39 22.6605 9.35156 22.2188C8.37253 21.9681 7.45064 21.5853 6.58594 21.0703C6.2805 21.368 5.96798 21.657 5.64844 21.9375C5.38992 22.0424 5.13989 22.0268 4.89844 21.8906C3.95312 20.9453 3.00781 20 2.0625 19.0547C1.90625 18.7734 1.90625 18.4922 2.0625 18.2109C2.34445 17.9368 2.61788 17.6556 2.88281 17.3672C2.36786 16.5025 1.98504 15.5806 1.73438 14.6016C1.29269 14.5631 0.847378 14.5397 0.398438 14.5312C0.202257 14.4521 0.0616317 14.3193 -0.0234375 14.1328C-0.0234375 12.6953 -0.0234375 11.2578 -0.0234375 9.82031C0.0616317 9.6338 0.202257 9.501 0.398438 9.42188C0.847378 9.41344 1.29269 9.39 1.73438 9.35156C1.98504 8.37253 2.36786 7.45064 2.88281 6.58594C2.61788 6.29756 2.34445 6.01631 2.0625 5.74219C1.90625 5.46094 1.90625 5.17969 2.0625 4.89844C3.00781 3.95312 3.95312 3.00781 4.89844 2.0625C5.17969 1.90625 5.46094 1.90625 5.74219 2.0625C6.01631 2.34445 6.29756 2.61788 6.58594 2.88281C7.45064 2.36786 8.37253 1.98504 9.35156 1.73438C9.39 1.29269 9.41344 0.847378 9.42188 0.398438C9.501 0.202257 9.6338 0.0616317 9.82031 -0.0234375ZM10.8047 1.38281C11.586 1.38281 12.3672 1.38281 13.1484 1.38281C13.1407 1.78936 13.1484 2.19561 13.1719 2.60156C13.276 2.78382 13.4244 2.91663 13.6172 3C14.9255 3.25597 16.1286 3.75597 17.2266 4.5C17.4735 4.55006 17.7079 4.51881 17.9297 4.40625C18.1485 4.1875 18.3672 3.96875 18.5859 3.75C18.6172 3.71875 18.6484 3.71875 18.6797 3.75C19.2038 4.26629 19.7194 4.78973 20.2266 5.32031C20.0085 5.56181 19.782 5.79619 19.5469 6.02344C19.4343 6.24525 19.4031 6.47963 19.4531 6.72656C19.8021 7.28372 20.1146 7.86188 20.3906 8.46094C20.6385 9.14034 20.8573 9.82786 21.0469 10.5234C21.1347 10.627 21.2362 10.7129 21.3516 10.7812C21.7575 10.8047 22.1638 10.8125 22.5703 10.8047C22.5703 11.586 22.5703 12.3672 22.5703 13.1484C22.1638 13.1407 21.7575 13.1484 21.3516 13.1719C21.1693 13.276 21.0365 13.4244 20.9531 13.6172C20.6971 14.9255 20.1972 16.1286 19.4531 17.2266C19.4031 17.4735 19.4343 17.7079 19.5469 17.9297C19.7656 18.1485 19.9844 18.3672 20.2031 18.5859C20.2344 18.6172 20.2344 18.6484 20.2031 18.6797C19.6868 19.2038 19.1634 19.7194 18.6328 20.2266C18.3913 20.0085 18.1569 19.782 17.9297 19.5469C17.7079 19.4343 17.4735 19.4031 17.2266 19.4531C16.6694 19.8021 16.0912 20.1146 15.4922 20.3906C14.8128 20.6385 14.1253 20.8573 13.4297 21.0469C13.3261 21.1347 13.2402 21.2362 13.1719 21.3516C13.1484 21.7575 13.1407 22.1638 13.1484 22.5703C12.3672 22.5703 11.586 22.5703 10.8047 22.5703C10.8125 22.1638 10.8047 21.7575 10.7812 21.3516C10.6771 21.1693 10.5287 21.0365 10.3359 20.9531C9.02766 20.6971 7.82452 20.1972 6.72656 19.4531C6.47963 19.4031 6.24525 19.4343 6.02344 19.5469C5.80467 19.7656 5.58595 19.9844 5.36719 20.2031C5.33592 20.2344 5.3047 20.2344 5.27344 20.2031C4.74933 19.6868 4.23371 19.1634 3.72656 18.6328C3.9446 18.3913 4.17117 18.1569 4.40625 17.9297C4.51881 17.7079 4.55006 17.4735 4.5 17.2266C4.15106 16.6694 3.83856 16.0912 3.5625 15.4922C3.31459 14.8128 3.09584 14.1253 2.90625 13.4297C2.81843 13.3261 2.71688 13.2402 2.60156 13.1719C2.19561 13.1484 1.78936 13.1407 1.38281 13.1484C1.38281 12.3672 1.38281 11.586 1.38281 10.8047C1.78936 10.8125 2.19561 10.8047 2.60156 10.7812C2.78382 10.6771 2.91663 10.5287 3 10.3359C3.25597 9.02766 3.75597 7.82452 4.5 6.72656C4.55006 6.47963 4.51881 6.24525 4.40625 6.02344C4.1875 5.80467 3.96875 5.58595 3.75 5.36719C3.71875 5.33592 3.71875 5.3047 3.75 5.27344C4.26629 4.74933 4.78973 4.23371 5.32031 3.72656C5.56181 3.9446 5.79619 4.17117 6.02344 4.40625C6.24525 4.51881 6.47963 4.55006 6.72656 4.5C7.28372 4.15106 7.86188 3.83856 8.46094 3.5625C9.14034 3.31459 9.82786 3.09584 10.5234 2.90625C10.627 2.81843 10.7129 2.71688 10.7812 2.60156C10.8047 2.19561 10.8125 1.78936 10.8047 1.38281Z" fill="#353C78"/>
</g>
<g id="Group_2">
<path id="Vector_2" opacity="0.962" fill-rule="evenodd" clip-rule="evenodd" d="M11.1329 4.71075C14.3181 4.51013 16.7322 5.76014 18.3751 8.46075C19.2983 10.224 19.5014 12.0677 18.9845 13.992C17.993 16.9831 15.9383 18.7253 12.8204 19.2186C9.63346 19.4417 7.21939 18.1995 5.57821 15.492C4.63573 13.6625 4.44823 11.7562 5.01571 9.77325C6.07189 6.89756 8.11096 5.21006 11.1329 4.71075ZM11.9298 6.117C11.158 6.15117 10.408 6.31523 9.67977 6.60919C7.81822 7.4865 6.66978 8.9318 6.23446 10.9451C5.90366 13.8856 7.0521 16.0184 9.67977 17.3436C12.2652 18.2851 14.5074 17.7616 16.4063 15.7732C17.8712 13.9257 18.1837 11.8944 17.3438 9.6795C16.2452 7.43025 14.4405 6.24277 11.9298 6.117Z" fill="#353C78"/>
</g>
<g id="Group_3">
<path id="Vector_3" opacity="0.983" fill-rule="evenodd" clip-rule="evenodd" d="M11.4609 7.28908C13.0607 7.13266 14.0842 7.82013 14.5313 9.35158C14.5391 9.80552 14.5626 10.2587 14.6016 10.711C15.0466 10.9445 15.3356 11.3039 15.4688 11.7891C15.5 12.7735 15.5 13.7578 15.4688 14.7422C15.284 15.3801 14.8699 15.7786 14.2266 15.9375C12.7266 15.9688 11.2266 15.9688 9.72657 15.9375C9.08321 15.7786 8.66917 15.3801 8.48439 14.7422C8.45312 13.7578 8.45312 12.7735 8.48439 11.7891C8.61756 11.3039 8.90659 10.9445 9.35157 10.711C9.39057 10.2587 9.41401 9.80552 9.42189 9.35158C9.70384 8.26497 10.3835 7.57745 11.4609 7.28908ZM11.6484 8.7422C11.4273 8.84158 11.232 8.9822 11.0625 9.16408C10.8399 9.60475 10.7539 10.0735 10.8047 10.5703C11.586 10.5703 12.3672 10.5703 13.1484 10.5703C13.1572 10.2243 13.1337 9.88061 13.0781 9.53908C12.8065 8.9148 12.33 8.6492 11.6484 8.7422ZM10.1016 11.9766C9.97726 11.9996 9.90695 12.0777 9.89064 12.211C9.85937 12.9141 9.85937 13.6172 9.89064 14.3203C9.90512 14.3797 9.92856 14.4344 9.96095 14.4844C10.6298 14.5379 11.3016 14.5614 11.9766 14.5547C12.6016 14.5469 13.2266 14.5391 13.8516 14.5313C13.9109 14.5168 13.9656 14.4933 14.0156 14.461C14.0682 14.0659 14.0917 13.6675 14.0859 13.2656C14.0781 12.9141 14.0703 12.5625 14.0625 12.211C14.048 12.1516 14.0246 12.0969 13.9922 12.0469C12.6983 11.9778 11.4015 11.9544 10.1016 11.9766Z" fill="#353C78"/>
</g>
</g>
<defs>
<clipPath id="clip0_24_582">
<rect width="24" height="24" fill="white"/>
</clipPath>
</defs>
</svg>
