<svg width="25" height="24" viewBox="0 0 25 24" fill="none" xmlns="http://www.w3.org/2000/svg">
<g id="headphones (1) 1" clip-path="url(#clip0_24_538)">
<g id="Group">
<path id="Vector" opacity="0.977" fill-rule="evenodd" clip-rule="evenodd" d="M11.3254 -0.0234375C11.9816 -0.0234375 12.6379 -0.0234375 13.2941 -0.0234375C17.6326 0.572728 20.6248 2.90085 22.2707 6.96094C22.5599 7.79798 22.7474 8.65734 22.8332 9.53906C22.8644 11.9297 22.8644 14.3203 22.8332 16.7109C22.6066 17.5625 22.0676 18.1016 21.216 18.3281C20.8257 18.3516 20.4351 18.3593 20.0441 18.3516C20.2433 20.1645 19.5402 21.4848 17.9347 22.3125C17.6614 22.4192 17.3801 22.4974 17.091 22.5469C16.1691 22.5625 15.2473 22.5781 14.3254 22.5938C14.0266 23.3282 13.4953 23.7891 12.7316 23.9766C12.4348 23.9766 12.1378 23.9766 11.841 23.9766C10.4132 23.449 9.92099 22.449 10.3644 20.9766C11.0157 19.8582 11.961 19.5067 13.2004 19.9219C13.7385 20.1787 14.1135 20.5849 14.3254 21.1406C15.0598 21.1719 15.7941 21.1719 16.5285 21.1406C17.4831 21.0855 18.1393 20.6168 18.4972 19.7344C17.5462 19.9071 16.7728 19.618 16.1769 18.8672C16.0224 18.6382 15.913 18.3882 15.8488 18.1172C15.8175 15.8985 15.8175 13.6797 15.8488 11.4609C16.2426 10.2441 17.0786 9.70505 18.3566 9.84375C19.1315 10.0123 19.6627 10.4654 19.9504 11.2031C20.3566 11.2187 20.7628 11.2344 21.1691 11.25C21.2496 11.2662 21.3278 11.2897 21.4035 11.3203C21.5623 7.86497 20.2654 5.10717 17.5129 3.04688C14.7716 1.24126 11.8653 0.928763 8.79412 2.10938C5.11222 3.87655 3.23724 6.81403 3.16911 10.9219C3.18474 11.0547 3.20037 11.1875 3.21599 11.3203C3.2917 11.2897 3.36982 11.2662 3.45036 11.25C3.85662 11.2344 4.26286 11.2187 4.66911 11.2031C5.14729 10.1278 5.97543 9.67467 7.15349 9.84375C8.00507 10.0703 8.54413 10.6094 8.77068 11.4609C8.80194 13.6797 8.80194 15.8985 8.77068 18.1172C8.54413 18.9688 8.00507 19.5078 7.15349 19.7344C5.97543 19.9035 5.14729 19.4503 4.66911 18.375C4.24724 18.3594 3.82536 18.3437 3.40349 18.3281C2.55193 18.1016 2.01286 17.5625 1.7863 16.7109C1.74127 14.1787 1.7569 11.6474 1.83318 9.11719C2.53222 4.96528 4.83691 2.11372 8.74724 0.5625C9.59324 0.279406 10.4526 0.0840937 11.3254 -0.0234375ZM6.45036 11.2734C6.96233 11.2124 7.26702 11.4311 7.36443 11.9297C7.39569 13.836 7.39569 15.7422 7.36443 17.6484C7.19741 18.306 6.81463 18.4701 6.21599 18.1406C6.08816 18.0021 6.01785 17.838 6.00505 17.6484C5.97379 15.7422 5.97379 13.836 6.00505 11.9297C6.05 11.6355 6.19846 11.4167 6.45036 11.2734ZM17.7004 11.2734C18.2123 11.2124 18.517 11.4311 18.6144 11.9297C18.6457 13.836 18.6457 15.7422 18.6144 17.6484C18.4474 18.306 18.0646 18.4701 17.466 18.1406C17.3382 18.0021 17.2678 17.838 17.2551 17.6484C17.2238 15.7422 17.2238 13.836 17.2551 11.9297C17.3 11.6355 17.4485 11.4167 17.7004 11.2734ZM3.87224 12.6328C4.10661 12.6328 4.34099 12.6328 4.57536 12.6328C4.57536 14.0703 4.57536 15.5078 4.57536 16.9453C4.22277 16.9693 3.87902 16.9302 3.54411 16.8281C3.33137 16.6928 3.21418 16.4975 3.19255 16.2422C3.1613 15.2734 3.1613 14.3047 3.19255 13.3359C3.23998 12.9214 3.46654 12.687 3.87224 12.6328ZM20.0441 12.6328C20.3596 12.62 20.6721 12.6434 20.9816 12.7031C21.2392 12.835 21.3876 13.0459 21.4269 13.3359C21.4582 14.3047 21.4582 15.2734 21.4269 16.2422C21.3876 16.5322 21.2392 16.7431 20.9816 16.875C20.6721 16.9347 20.3596 16.9582 20.0441 16.9453C20.0441 15.5078 20.0441 14.0703 20.0441 12.6328ZM12.0754 21.2109C12.7387 21.1477 13.0278 21.4446 12.9426 22.1016C12.6676 22.5584 12.3004 22.6444 11.841 22.3594C11.5319 21.8913 11.61 21.5085 12.0754 21.2109Z" fill="#353C78"/>
</g>
</g>
<defs>
<clipPath id="clip0_24_538">
<rect width="24" height="24" fill="white" transform="translate(0.333252)"/>
</clipPath>
</defs>
</svg>
