<svg width="25" height="25" viewBox="0 0 25 25" fill="none" xmlns="http://www.w3.org/2000/svg">
<g id="contract 1" clip-path="url(#clip0_24_654)">
<g id="Group">
<path id="Vector" opacity="0.974" fill-rule="evenodd" clip-rule="evenodd" d="M7.01831 0.476562C11.2839 0.476562 15.5496 0.476562 19.8152 0.476562C19.8864 0.519211 19.9645 0.558273 20.0496 0.59375C21.6085 2.12921 23.1398 3.6839 24.6433 5.25781C24.6433 11.5235 24.6433 17.789 24.6433 24.0547C24.5822 24.1244 24.5275 24.2025 24.4792 24.2891C24.3848 24.3452 24.2988 24.4077 24.2214 24.4766C18.4871 24.4766 12.7527 24.4766 7.01831 24.4766C6.77737 24.3679 6.62897 24.1804 6.573 23.9141C6.55739 22.664 6.54173 21.4141 6.52612 20.1641C6.16528 19.8189 5.82155 19.4595 5.49487 19.0859C5.01386 18.2621 5.02948 17.4496 5.54175 16.6484C6.1732 15.9701 6.82162 15.306 7.48706 14.6562C6.73092 14.0515 5.93404 13.5046 5.09644 13.0156C4.00269 12.4062 2.90893 11.7969 1.81519 11.1875C1.1988 10.634 0.808172 9.95436 0.643311 9.14844C0.643311 8.75783 0.643311 8.36717 0.643311 7.97656C1.0839 6.25508 2.19328 5.33319 3.97144 5.21094C4.98149 5.23569 5.83308 5.61069 6.52612 6.33594C6.54173 4.57031 6.55739 2.80469 6.573 1.03906C6.62897 0.772789 6.77737 0.585289 7.01831 0.476562ZM8.00269 1.88281C11.6273 1.92753 15.2523 1.94315 18.8777 1.92969C18.8699 3.17978 18.8777 4.42978 18.9011 5.67969C18.987 5.95311 19.1668 6.13283 19.4402 6.21875C20.7057 6.24219 21.9713 6.25002 23.2371 6.24219C23.2371 11.8516 23.2371 17.4609 23.2371 23.0703C18.159 23.0703 13.0808 23.0703 8.00269 23.0703C7.99486 22.1015 8.00269 21.1327 8.02612 20.1641C8.073 20.1172 8.11987 20.0703 8.16675 20.0234C8.56519 20.4219 8.96362 20.8203 9.36206 21.2188C9.61237 21.3881 9.87801 21.4194 10.1589 21.3125C12.3373 19.181 14.5014 17.0325 16.6511 14.8672C16.8074 14.5703 16.8074 14.2734 16.6511 13.9766C16.2527 13.5781 15.8542 13.1797 15.4558 12.7812C15.689 12.5952 15.8687 12.3686 15.9949 12.1016C16.0388 11.8717 16.0075 11.653 15.9011 11.4453C15.4871 11.0313 15.073 10.6172 14.6589 10.2031C13.821 9.64705 12.9616 9.61583 12.0808 10.1094C11.4018 10.7493 10.7299 11.3977 10.0652 12.0547C9.2858 11.0944 8.60611 10.0631 8.02612 8.96094C8.00269 6.60162 7.99486 4.24224 8.00269 1.88281ZM20.3308 2.96094C20.9464 3.55303 21.5557 4.1546 22.1589 4.76562C21.5497 4.78906 20.9404 4.79687 20.3308 4.78906C20.3308 4.17969 20.3308 3.57031 20.3308 2.96094ZM3.73706 6.66406C4.48648 6.6087 5.08804 6.8743 5.54175 7.46094C6.33384 9.03017 7.20886 10.5458 8.16675 12.0078C8.41444 12.365 8.68008 12.7087 8.96362 13.0391C8.99489 13.0859 8.99489 13.1328 8.96362 13.1797C8.823 13.3203 8.68237 13.4609 8.54175 13.6016C6.80362 12.2982 4.95207 11.1654 2.98706 10.2031C2.02364 9.47984 1.82832 8.58144 2.40112 7.50781C2.74552 7.06095 3.19084 6.7797 3.73706 6.66406ZM13.1121 11.2109C13.2906 11.1951 13.4624 11.2186 13.6277 11.2812C13.879 11.4538 14.0743 11.6648 14.2136 11.9141C11.9011 14.2265 9.58861 16.5391 7.27612 18.8516C7.038 18.6449 6.83484 18.4105 6.66675 18.1484C6.57117 17.9381 6.58678 17.735 6.71362 17.5391C8.82722 15.402 10.96 13.2927 13.1121 11.2109ZM14.3777 13.7891C14.6026 13.9905 14.8214 14.2014 15.0339 14.4219C13.3074 16.1484 11.5808 17.875 9.85425 19.6016C9.64331 19.3906 9.43237 19.1797 9.22144 18.9688C10.9496 17.2484 12.6684 15.5218 14.3777 13.7891Z" fill="#353C78"/>
</g>
<g id="Group_2">
<path id="Vector_2" opacity="0.962" fill-rule="evenodd" clip-rule="evenodd" d="M9.78397 3.28906C12.2059 3.28125 14.6278 3.28906 17.0496 3.3125C17.4563 3.50892 17.6047 3.82923 17.4949 4.27344C17.4008 4.52365 17.2211 4.67208 16.9558 4.71875C14.5965 4.75 12.2371 4.75 9.87772 4.71875C9.34082 4.52729 9.17675 4.1601 9.38553 3.61719C9.49996 3.47874 9.6328 3.36936 9.78397 3.28906Z" fill="#353C78"/>
</g>
<g id="Group_3">
<path id="Vector_3" opacity="0.952" fill-rule="evenodd" clip-rule="evenodd" d="M9.78397 6.10157C10.5966 6.09374 11.4091 6.10157 12.2215 6.12501C12.724 6.3508 12.8568 6.71798 12.6199 7.22657C12.5033 7.40587 12.3392 7.50744 12.1277 7.53126C11.3777 7.56252 10.6277 7.56252 9.87772 7.53126C9.34082 7.33982 9.17675 6.9726 9.38553 6.42969C9.49996 6.29123 9.6328 6.18187 9.78397 6.10157Z" fill="#353C78"/>
</g>
<g id="Group_4">
<path id="Vector_4" opacity="0.953" fill-rule="evenodd" clip-rule="evenodd" d="M14.6121 6.10157C15.4248 6.09374 16.2373 6.10157 17.0496 6.12501C17.4564 6.32141 17.6048 6.64176 17.4949 7.08594C17.3859 7.31671 17.2062 7.46516 16.9559 7.53126C16.1409 7.57546 15.3284 7.55985 14.5184 7.48438C14.0935 7.20941 13.9919 6.84219 14.2137 6.38282C14.3225 6.24712 14.4553 6.15337 14.6121 6.10157Z" fill="#353C78"/>
</g>
<g id="Group_5">
<path id="Vector_5" opacity="0.962" fill-rule="evenodd" clip-rule="evenodd" d="M18.5495 15.6172C20.1926 15.4889 21.3723 16.1608 22.0886 17.6329C22.6256 19.3185 22.1803 20.6701 20.7527 21.6875C19.8035 22.1893 18.8191 22.2674 17.7995 21.9219C16.2148 21.1354 15.5664 19.862 15.8542 18.1016C16.2688 16.7414 17.1673 15.9133 18.5495 15.6172ZM18.6902 17.0704C17.9409 17.2806 17.4643 17.765 17.2605 18.5235C17.1795 19.802 17.7732 20.5363 19.0417 20.7266C20.3335 20.5287 20.9272 19.7787 20.823 18.4766C20.4805 17.4552 19.7696 16.9865 18.6902 17.0704Z" fill="#353C78"/>
</g>
</g>
<defs>
<clipPath id="clip0_24_654">
<rect width="24" height="24" fill="white" transform="translate(0.666748 0.5)"/>
</clipPath>
</defs>
</svg>
