<svg width="24" height="24" viewBox="0 0 24 24" fill="none" xmlns="http://www.w3.org/2000/svg">
<g id="empty 1" clip-path="url(#clip0_24_495)">
<g id="Group">
<path id="Vector" opacity="0.97" fill-rule="evenodd" clip-rule="evenodd" d="M10.9922 -0.0234375C11.1797 -0.0234375 11.3672 -0.0234375 11.5547 -0.0234375C11.7412 0.0616317 11.874 0.202257 11.9531 0.398438C11.9844 1.10156 11.9844 1.80469 11.9531 2.50781C11.7116 2.9285 11.3601 3.04569 10.8984 2.85938C10.7591 2.77665 10.6575 2.65946 10.5938 2.50781C10.5625 1.80469 10.5625 1.10156 10.5938 0.398438C10.6729 0.202257 10.8057 0.0616317 10.9922 -0.0234375Z" fill="#353C78"/>
</g>
<g id="Group_2">
<path id="Vector_2" opacity="0.944" fill-rule="evenodd" clip-rule="evenodd" d="M6.82035 1.89844C7.02046 1.9094 7.20796 1.96409 7.38285 2.0625C7.81255 2.42969 8.24221 2.79688 8.67191 3.16406C8.99057 3.80145 8.80307 4.2077 8.10941 4.38281C7.97554 4.34739 7.84274 4.30833 7.71097 4.26562C7.25005 3.86719 6.78908 3.46875 6.32816 3.07031C6.07068 2.48914 6.23474 2.09852 6.82035 1.89844Z" fill="#353C78"/>
</g>
<g id="Group_3">
<path id="Vector_3" opacity="0.944" fill-rule="evenodd" clip-rule="evenodd" d="M15.539 1.89844C16.266 1.99353 16.4926 2.38415 16.2187 3.07031C15.7578 3.46875 15.2968 3.86719 14.8359 4.26563C14.3232 4.47406 13.956 4.32563 13.7344 3.82031C13.6928 3.60601 13.724 3.40289 13.8281 3.21094C14.2734 2.82812 14.7187 2.44531 15.164 2.0625C15.2886 1.99322 15.4136 1.93853 15.539 1.89844Z" fill="#353C78"/>
</g>
<g id="Group_4">
<path id="Vector_4" opacity="0.991" fill-rule="evenodd" clip-rule="evenodd" d="M20.1797 23.9765C14.4609 23.9765 8.74219 23.9765 3.02344 23.9765C1.80537 23.6725 1.04756 22.9069 0.750001 21.6797C0.71875 17.1172 0.71875 12.5547 0.750001 7.99217C1.03907 6.76559 1.79687 6.00781 3.02344 5.71873C8.33794 5.67223 13.6505 5.68784 18.9609 5.76561C19.6406 6.00781 20.1015 6.46873 20.3438 7.14842C20.404 8.09914 20.4353 9.0523 20.4375 10.0078C21.1564 10.2892 21.6095 10.8049 21.7969 11.5547C21.8203 12.3983 21.8281 13.242 21.8203 14.0859C22.1488 14.0781 22.4769 14.0859 22.8047 14.1094C22.9563 14.1731 23.0735 14.2747 23.1563 14.414C23.2103 15.2381 23.2338 16.0662 23.2266 16.8984C23.2187 17.6953 23.211 18.4922 23.2031 19.289C23.1328 19.4844 23 19.6172 22.8047 19.6875C22.4769 19.7109 22.1488 19.7187 21.8203 19.7109C21.8415 20.651 21.8181 21.5885 21.75 22.5234C21.4712 23.279 20.9477 23.7634 20.1797 23.9765ZM3.53906 7.10155C8.46099 7.09372 13.3829 7.10155 18.3047 7.12498C18.5947 7.16427 18.8056 7.31267 18.9375 7.5703C19.0043 8.34927 19.0277 9.13053 19.0078 9.91405C13.741 9.93683 8.47533 9.91339 3.21094 9.84373C2.24897 9.45927 1.95991 8.77958 2.34375 7.80467C2.62828 7.36967 3.02672 7.1353 3.53906 7.10155ZM2.13281 10.9922C2.41411 11.1354 2.71098 11.237 3.02344 11.2969C8.58595 11.3125 14.1484 11.3281 19.7109 11.3437C20.001 11.383 20.2119 11.5314 20.3438 11.789C20.4105 12.5524 20.4339 13.318 20.4141 14.0859C19.3827 14.0781 18.3514 14.0859 17.3203 14.1094C16.5028 14.833 15.7138 15.5908 14.9531 16.3828C14.7344 16.7265 14.7344 17.0703 14.9531 17.414C15.6967 18.1732 16.4545 18.9154 17.2266 19.6406C18.2848 19.7099 19.3473 19.7334 20.4141 19.7109C20.4341 20.51 20.4106 21.3069 20.3438 22.1015C20.2119 22.3592 20.001 22.5076 19.7109 22.5469C14.3203 22.5781 8.92969 22.5781 3.53906 22.5469C2.70313 22.4609 2.24219 22 2.15625 21.164C2.13281 17.7734 2.125 14.3828 2.13281 10.9922ZM17.9297 15.4922C19.2266 15.4922 20.5234 15.4922 21.8203 15.4922C21.8203 16.4297 21.8203 17.3672 21.8203 18.3047C20.5233 18.3125 19.2265 18.3047 17.9297 18.2812C17.4681 17.8274 17.015 17.3665 16.5703 16.8984C17.0244 16.4287 17.4776 15.9599 17.9297 15.4922ZM4.94531 18.3047C5.88281 18.3047 6.82031 18.3047 7.75781 18.3047C7.75781 18.7734 7.75781 19.2422 7.75781 19.7109C6.82031 19.7109 5.88281 19.7109 4.94531 19.7109C4.94531 19.2422 4.94531 18.7734 4.94531 18.3047Z" fill="#353C78"/>
</g>
<g id="Group_5">
<path id="Vector_5" opacity="0.994" fill-rule="evenodd" clip-rule="evenodd" d="M3.96094 16.8984C5.55478 16.8906 7.14853 16.8984 8.74219 16.9219C8.93752 16.9922 9.07031 17.125 9.14063 17.3203C9.17189 18.4453 9.17189 19.5703 9.14063 20.6953C9.07031 20.8906 8.93752 21.0234 8.74219 21.0938C7.14844 21.125 5.55469 21.125 3.96094 21.0938C3.76562 21.0234 3.63281 20.8906 3.5625 20.6953C3.53125 19.5703 3.53125 18.4453 3.5625 17.3203C3.64162 17.1241 3.77443 16.9835 3.96094 16.8984ZM4.94531 18.3047C4.94531 18.7734 4.94531 19.2422 4.94531 19.7109C5.88281 19.7109 6.82031 19.7109 7.75781 19.7109C7.75781 19.2422 7.75781 18.7734 7.75781 18.3047C6.82031 18.3047 5.88281 18.3047 4.94531 18.3047Z" fill="#353C78"/>
</g>
</g>
<defs>
<clipPath id="clip0_24_495">
<rect width="24" height="24" fill="white"/>
</clipPath>
</defs>
</svg>
