<svg width="25" height="24" viewBox="0 0 25 24" fill="none" xmlns="http://www.w3.org/2000/svg">
<g id="faq (4) 1" clip-path="url(#clip0_46_339)">
<g id="Group">
<path id="Vector" opacity="0.94" fill-rule="evenodd" clip-rule="evenodd" d="M2.02344 -0.0234375C7.53908 -0.0234375 13.0547 -0.0234375 18.5703 -0.0234375C19.5817 0.214521 20.2145 0.839522 20.4688 1.85156C20.5222 4.75669 20.5613 7.66294 20.5859 10.5703C22.5938 11.82 23.7657 13.6169 24.1016 15.9609C24.1016 16.5078 24.1016 17.0547 24.1016 17.6016C23.7381 20.024 22.5037 21.86 20.3984 23.1094C19.5557 23.5648 18.665 23.8539 17.7266 23.9766C17.1797 23.9766 16.6328 23.9766 16.0859 23.9766C13.012 23.4888 10.973 21.7701 9.96875 18.8203C9.73213 18.0219 9.6462 17.2094 9.71094 16.3828C9.60045 16.3752 9.49109 16.383 9.38281 16.4062C8.07031 17.2969 6.75781 18.1875 5.44531 19.0781C4.67645 19.3613 4.12176 19.1348 3.78125 18.3984C3.67554 17.7288 3.58961 17.057 3.52344 16.3828C3.03881 16.3906 2.55444 16.3828 2.07031 16.3594C1.03595 16.114 0.379693 15.4812 0.101562 14.4609C0.101562 10.2735 0.101562 6.08592 0.101562 1.89844C0.382812 0.898439 1.02344 0.257812 2.02344 -0.0234375ZM2.16406 0.820312C7.58595 0.812498 13.0078 0.820312 18.4297 0.84375C19.1537 1.04878 19.5678 1.52534 19.6719 2.27344C19.7109 4.88297 19.7031 7.49231 19.6484 10.1016C16.7823 9.0577 14.2042 9.53423 11.9141 11.5312C10.7863 12.6383 10.0831 13.9742 9.80469 15.5391C9.51256 15.5128 9.23131 15.5518 8.96094 15.6562C7.62027 16.5758 6.26867 17.4742 4.90625 18.3516C4.70433 18.3371 4.59495 18.2278 4.57812 18.0234C4.48438 17.3047 4.39062 16.5859 4.29688 15.8672C4.25781 15.7031 4.15625 15.6015 3.99219 15.5625C3.38281 15.5469 2.77344 15.5312 2.16406 15.5156C1.54687 15.336 1.14844 14.9375 0.96875 14.3203C0.937498 10.2266 0.937498 6.1328 0.96875 2.03906C1.15704 1.42113 1.55547 1.01488 2.16406 0.820312ZM16.6016 10.3828C19.1531 10.3963 21.0984 11.4744 22.4375 13.6172C23.3131 15.2108 23.5006 16.8827 23 18.6328C22.0989 21.189 20.3098 22.6811 17.6328 23.1094C14.9535 23.2892 12.8832 22.2658 11.4219 20.0391C10.1732 17.76 10.2201 15.51 11.5625 13.2891C12.7888 11.539 14.4685 10.5703 16.6016 10.3828Z" fill="#061C28"/>
</g>
<g id="Group_2">
<path id="Vector_2" opacity="0.945" fill-rule="evenodd" clip-rule="evenodd" d="M2.77344 2.74219C7.78911 2.73437 12.8047 2.74219 17.8203 2.76563C18.0306 2.82655 18.1244 2.96718 18.1016 3.1875C18.1205 3.37193 18.0424 3.49693 17.8672 3.5625C12.8203 3.59375 7.77345 3.59375 2.72656 3.5625C2.50836 3.42672 2.43805 3.23141 2.51563 2.97656C2.59671 2.88741 2.68264 2.80929 2.77344 2.74219Z" fill="#061C28"/>
</g>
<g id="Group_3">
<path id="Vector_3" opacity="0.946" fill-rule="evenodd" clip-rule="evenodd" d="M2.67976 5.97657C7.75791 5.96874 12.836 5.97657 17.9141 6.00001C18.1641 6.24999 18.1641 6.50002 17.9141 6.75001C17.8516 6.76562 17.7891 6.78127 17.7266 6.79688C12.7735 6.82815 7.8204 6.82815 2.86726 6.79688C2.5536 6.72479 2.43641 6.52946 2.5157 6.21094C2.56244 6.12549 2.61713 6.04735 2.67976 5.97657Z" fill="#061C28"/>
</g>
<g id="Group_4">
<path id="Vector_4" opacity="0.943" fill-rule="evenodd" clip-rule="evenodd" d="M2.72665 9.16407C6.03916 9.15624 9.35168 9.16407 12.6641 9.18751C12.9361 9.36137 12.9908 9.58791 12.8282 9.86719C12.7617 9.91219 12.6914 9.95124 12.6173 9.98438C9.33602 10.0156 6.05477 10.0156 2.77352 9.98438C2.48703 9.83218 2.41672 9.60563 2.56259 9.30469C2.61626 9.25144 2.67095 9.20457 2.72665 9.16407Z" fill="#061C28"/>
</g>
<g id="Group_5">
<path id="Vector_5" opacity="0.94" fill-rule="evenodd" clip-rule="evenodd" d="M2.77337 12.3516C4.86718 12.3437 6.96095 12.3516 9.05462 12.375C9.42962 12.6406 9.42962 12.9062 9.05462 13.1719C6.94524 13.2031 4.83587 13.2031 2.7265 13.1719C2.55849 13.0939 2.48036 12.9611 2.49212 12.7734C2.48201 12.5583 2.57576 12.4177 2.77337 12.3516Z" fill="#061C28"/>
</g>
<g id="Group_6">
<path id="Vector_6" opacity="0.946" fill-rule="evenodd" clip-rule="evenodd" d="M12.3359 14.3672C13.1174 14.3594 13.8986 14.3672 14.6797 14.3906C14.8979 14.5264 14.9682 14.7217 14.8906 14.9766C14.8183 15.0646 14.7324 15.1349 14.6328 15.1875C14.0706 15.2109 13.5081 15.2188 12.9453 15.2109C12.9453 15.5859 12.9453 15.9609 12.9453 16.3359C13.2776 16.3179 13.6057 16.3414 13.9297 16.4063C14.1252 16.5869 14.1643 16.7979 14.0469 17.0391C14.0046 17.0954 13.9499 17.1345 13.8828 17.1563C13.5707 17.1797 13.2582 17.1875 12.9453 17.1797C12.9651 17.7919 12.9417 18.4013 12.875 19.0078C12.6944 19.2033 12.4834 19.2424 12.2422 19.125C12.1859 19.0827 12.1468 19.028 12.125 18.9609C12.0937 17.4922 12.0937 16.0234 12.125 14.5547C12.1905 14.4811 12.2608 14.4186 12.3359 14.3672Z" fill="#061C28"/>
</g>
<g id="Group_7">
<path id="Vector_7" opacity="0.942" fill-rule="evenodd" clip-rule="evenodd" d="M16.3203 14.3672C16.4965 14.3471 16.6605 14.3783 16.8125 14.461C17.4224 15.8836 17.9927 17.3212 18.5235 18.7735C18.4769 19.1017 18.2894 19.2345 17.961 19.1719C17.8906 19.1446 17.8281 19.1055 17.7735 19.0547C17.5656 18.5793 17.3625 18.1028 17.1641 17.625C16.7112 17.6016 16.2581 17.5938 15.8047 17.6016C15.6546 18.0428 15.4906 18.4803 15.3125 18.9141C15.1535 19.1938 14.9269 19.2641 14.6328 19.125C14.5008 18.9686 14.4617 18.7889 14.5157 18.586C15.0561 17.2616 15.5873 15.9335 16.1094 14.6016C16.1575 14.4991 16.2278 14.421 16.3203 14.3672ZM16.461 15.961C16.3942 16.2198 16.3005 16.4698 16.1797 16.711C16.3968 16.7655 16.6156 16.7732 16.836 16.7344C16.7403 16.4573 16.6153 16.1994 16.461 15.961Z" fill="#061C28"/>
</g>
<g id="Group_8">
<path id="Vector_8" opacity="0.941" fill-rule="evenodd" clip-rule="evenodd" d="M20.1172 14.3672C21.1823 14.2465 21.8463 14.6996 22.1094 15.7265C22.1407 16.4141 22.1407 17.1015 22.1094 17.789C22.083 17.9775 22.0283 18.1572 21.9453 18.3281C22.0399 18.4626 22.1024 18.611 22.1328 18.7734C22.0707 19.1172 21.8676 19.25 21.5234 19.1719C21.4264 19.1274 21.3561 19.0571 21.3125 18.9609C20.6745 19.2977 20.0573 19.2586 19.4609 18.8437C19.2037 18.6028 19.0241 18.3137 18.9219 17.9765C18.8906 17.1797 18.8906 16.3828 18.9219 15.5859C19.1102 14.968 19.5086 14.5618 20.1172 14.3672ZM20.3047 15.2109C20.0596 15.3075 19.8799 15.4793 19.7656 15.7265C19.7344 16.4141 19.7344 17.1015 19.7656 17.789C19.7877 17.8709 19.819 17.949 19.8594 18.0234C20.1239 18.3478 20.4442 18.426 20.8203 18.2578C20.7187 18.0859 20.6172 17.9141 20.5156 17.7422C20.4786 17.5953 20.4942 17.4546 20.5625 17.3203C20.8156 17.0642 21.05 17.0798 21.2656 17.3672C21.2969 16.8672 21.2969 16.3672 21.2656 15.8672C21.1316 15.3823 20.8113 15.1635 20.3047 15.2109Z" fill="#061C28"/>
</g>
</g>
<defs>
<clipPath id="clip0_46_339">
<rect width="24" height="24" fill="white" transform="translate(0.125)"/>
</clipPath>
</defs>
</svg>
