<svg width="25" height="24" viewBox="0 0 25 24" fill="none" xmlns="http://www.w3.org/2000/svg">
<g id="invitation-letter 1" clip-path="url(#clip0_46_316)">
<g id="Group">
<path id="Vector" opacity="0.943" fill-rule="evenodd" clip-rule="evenodd" d="M5.05469 -0.0234375C10.0859 -0.0234375 15.1172 -0.0234375 20.1484 -0.0234375C20.6451 0.139656 20.9342 0.483408 21.0156 1.00781C21.0312 2.46094 21.0469 3.91406 21.0625 5.36719C22.0112 6.04861 22.9721 6.71264 23.9453 7.35938C24.2766 7.60936 24.4953 7.92966 24.6016 8.32031C24.6016 13.1328 24.6016 17.9453 24.6016 22.7578C24.3985 23.3672 23.9922 23.7735 23.3828 23.9766C16.1953 23.9766 9.0078 23.9766 1.82031 23.9766C1.21094 23.7735 0.804687 23.3672 0.601562 22.7578C0.601562 17.9453 0.601562 13.1328 0.601562 8.32031C0.707803 7.92966 0.926553 7.60936 1.25781 7.35938C2.23099 6.71264 3.19193 6.04861 4.14062 5.36719C4.15625 3.91406 4.17188 2.46094 4.1875 1.00781C4.26898 0.483408 4.55805 0.139656 5.05469 -0.0234375ZM5.24219 0.820312C10.1835 0.797081 15.121 0.820519 20.0547 0.890625C20.1117 0.967861 20.1508 1.0538 20.1719 1.14844C20.2031 4.28906 20.2031 7.42969 20.1719 10.5703C18.135 12.1227 16.1116 13.693 14.1016 15.2812C13.8681 15.1721 13.6337 15.0471 13.3984 14.9062C12.632 14.6251 11.9289 14.7345 11.2891 15.2344C11.23 15.2804 11.1676 15.296 11.1016 15.2812C9.09152 13.693 7.06811 12.1227 5.03125 10.5703C5 7.42969 5 4.28906 5.03125 1.14844C5.05611 1.00383 5.12642 0.894455 5.24219 0.820312ZM4.11719 6.39844C4.17172 7.54673 4.17953 8.70295 4.14062 9.86719C3.35259 9.27427 2.57915 8.66489 1.82031 8.03906C2.60094 7.50769 3.36656 6.96084 4.11719 6.39844ZM21.0391 6.39844C21.8195 6.94411 22.6007 7.491 23.3828 8.03906C22.624 8.66489 21.8506 9.27427 21.0625 9.86719C21.0391 8.71106 21.0312 7.5548 21.0391 6.39844ZM1.44531 8.88281C4.43774 11.211 7.43772 13.5313 10.4453 15.8438C7.46453 18.1115 4.48797 20.385 1.51562 22.6641C1.44543 18.0769 1.42199 13.4832 1.44531 8.88281ZM23.7109 8.88281C23.7422 11.164 23.7578 13.4531 23.7578 15.75C23.7655 18.0613 23.7421 20.366 23.6875 22.6641C20.7152 20.385 17.7386 18.1115 14.7578 15.8438C17.7624 13.5451 20.7467 11.2248 23.7109 8.88281ZM12.4609 15.5859C12.8318 15.5872 13.1599 15.7043 13.4453 15.9375C16.5859 18.3281 19.7266 20.7188 22.8672 23.1094C16.0234 23.1406 9.17969 23.1406 2.33594 23.1094C5.47656 20.7188 8.61719 18.3281 11.7578 15.9375C11.9709 15.7685 12.2052 15.6513 12.4609 15.5859Z" fill="#061C28"/>
</g>
<g id="Group_2">
<path id="Vector_2" opacity="0.942" fill-rule="evenodd" clip-rule="evenodd" d="M12.5078 2.74232C12.7367 2.72709 12.9007 2.82084 13 3.02357C13.0234 3.86717 13.0313 4.71093 13.0234 5.55482C13.8673 5.54699 14.7111 5.55482 15.5547 5.57826C15.9297 5.8439 15.9297 6.10949 15.5547 6.37513C14.7111 6.39857 13.8673 6.4064 13.0234 6.39857C13.0313 7.24246 13.0234 8.08621 13 8.92982C12.7344 9.30482 12.4688 9.30482 12.2031 8.92982C12.1797 8.08621 12.1719 7.24246 12.1797 6.39857C11.3358 6.4064 10.492 6.39857 9.64844 6.37513C9.27344 6.10949 9.27344 5.8439 9.64844 5.57826C10.492 5.55482 11.3358 5.54699 12.1797 5.55482C12.1719 4.71093 12.1797 3.86717 12.2031 3.02357C12.2704 2.88567 12.372 2.79192 12.5078 2.74232Z" fill="#061C28"/>
</g>
<g id="Group_3">
<path id="Vector_3" opacity="0.944" fill-rule="evenodd" clip-rule="evenodd" d="M8.52355 10.3359C11.2423 10.3281 13.9611 10.3359 16.6798 10.3594C16.9843 10.4459 17.0858 10.6412 16.9845 10.9453C16.9477 11.029 16.893 11.0994 16.8204 11.1563C14.0079 11.1875 11.1954 11.1875 8.38292 11.1563C8.20935 10.9971 8.15469 10.8017 8.21886 10.5703C8.30347 10.4613 8.40505 10.3832 8.52355 10.3359Z" fill="#061C28"/>
</g>
<g id="Group_4">
<path id="Vector_4" opacity="0.933" fill-rule="evenodd" clip-rule="evenodd" d="M10.8672 12.3516C12.0236 12.3437 13.1798 12.3516 14.3359 12.375C14.5981 12.4876 14.684 12.6829 14.5938 12.9609C14.5502 13.0571 14.4798 13.1274 14.3828 13.1719C13.1953 13.2031 12.0078 13.2031 10.8203 13.1719C10.6021 13.0361 10.5318 12.8408 10.6094 12.5859C10.6753 12.4808 10.7612 12.4027 10.8672 12.3516Z" fill="#061C28"/>
</g>
</g>
<defs>
<clipPath id="clip0_46_316">
<rect width="24" height="24" fill="white" transform="translate(0.625)"/>
</clipPath>
</defs>
</svg>
