<svg width="25" height="24" viewBox="0 0 25 24" fill="none" xmlns="http://www.w3.org/2000/svg">
<g id="online-payment (1) 1" clip-path="url(#clip0_46_279)">
<g id="Group">
<path id="Vector" opacity="0.947" fill-rule="evenodd" clip-rule="evenodd" d="M24.8516 4.80469C24.8516 9.58594 24.8516 14.3672 24.8516 19.1484C24.6468 19.8536 24.1781 20.2677 23.4453 20.3906C16.3828 20.4219 9.32033 20.4219 2.25781 20.3906C1.55152 20.265 1.08277 19.8666 0.851562 19.1953C0.851562 14.3828 0.851562 9.57033 0.851562 4.75781C1.08096 4.08706 1.54971 3.68862 2.25781 3.5625C9.32033 3.53125 16.3828 3.53125 23.4453 3.5625C24.1781 3.68544 24.6468 4.09951 24.8516 4.80469ZM2.35156 4.38281C9.35159 4.375 16.3516 4.38281 23.3516 4.40625C23.6719 4.46049 23.8828 4.64018 23.9844 4.94531C24.0156 9.63281 24.0156 14.3203 23.9844 19.0078C23.8828 19.313 23.6719 19.4926 23.3516 19.5469C16.3516 19.5781 9.35155 19.5781 2.35156 19.5469C2.03128 19.4926 1.82034 19.313 1.71875 19.0078C1.6875 14.3203 1.6875 9.63281 1.71875 4.94531C1.83145 4.64351 2.04239 4.45601 2.35156 4.38281Z" fill="#061C28"/>
</g>
<g id="Group_2">
<path id="Vector_2" opacity="0.946" fill-rule="evenodd" clip-rule="evenodd" d="M18.8047 5.55477C20.5387 5.45647 21.7965 6.17525 22.5782 7.71102C23.1949 9.43963 22.8121 10.9006 21.4297 12.0938C20.1062 12.9571 18.7468 13.0196 17.3516 12.2813C15.7929 11.1677 15.3007 9.69111 15.875 7.85164C16.448 6.56731 17.4246 5.80171 18.8047 5.55477ZM18.9454 6.39852C18.6632 7.15311 18.5069 7.93433 18.4766 8.74227C18.9922 8.74227 19.5079 8.74227 20.0235 8.74227C19.9992 7.94877 19.8429 7.18311 19.5547 6.44539C19.354 6.39889 19.1509 6.38324 18.9454 6.39852ZM17.8204 6.77352C17.1263 7.23411 16.6888 7.87475 16.5079 8.69539C16.8815 8.74217 17.2565 8.75778 17.6329 8.74227C17.6567 8.09094 17.7505 7.4503 17.9141 6.82039C17.8927 6.78299 17.8614 6.76738 17.8204 6.77352ZM20.586 6.77352C20.7487 7.41903 20.8425 8.07528 20.8672 8.74227C21.2435 8.75778 21.6185 8.74217 21.9922 8.69539C21.8081 7.84035 21.3394 7.19975 20.586 6.77352ZM16.5079 9.58602C16.6673 10.4683 17.1282 11.1402 17.8907 11.6016C17.7504 10.9399 17.6645 10.268 17.6329 9.58602C17.2579 9.58602 16.8829 9.58602 16.5079 9.58602ZM18.4766 9.58602C18.4996 10.3885 18.6559 11.162 18.9454 11.9063C19.1579 11.9922 19.3689 11.9844 19.5782 11.8829C19.8476 11.1415 19.996 10.3759 20.0235 9.58602C19.5079 9.58602 18.9922 9.58602 18.4766 9.58602ZM20.8672 9.58602C20.8355 10.2689 20.7495 10.9408 20.6094 11.6016C21.3717 11.1403 21.8327 10.4685 21.9922 9.58602C21.6172 9.58602 21.2422 9.58602 20.8672 9.58602Z" fill="#061C28"/>
</g>
<g id="Group_3">
<path id="Vector_3" opacity="0.943" fill-rule="evenodd" clip-rule="evenodd" d="M4.13281 7.57032C5.14856 7.56249 6.16419 7.57032 7.17969 7.59376C7.64534 7.73124 7.93438 8.03593 8.04688 8.50782C8.07814 9.08593 8.07814 9.66408 8.04688 10.2422C7.9348 10.7137 7.64577 11.0184 7.17969 11.1563C6.16405 11.1875 5.14844 11.1875 4.13281 11.1563C3.6875 11.0235 3.39844 10.7344 3.26563 10.2891C3.23437 9.67969 3.23437 9.07032 3.26563 8.46094C3.40707 8.01488 3.69613 7.71802 4.13281 7.57032ZM4.32031 8.41407C4.22774 8.46779 4.15742 8.54593 4.10938 8.64844C4.07812 9.1328 4.07812 9.61721 4.10938 10.1016C4.13118 10.1686 4.17025 10.2233 4.22656 10.2656C5.14423 10.3426 6.06613 10.3582 6.99219 10.3125C7.05927 10.2907 7.11392 10.2516 7.15625 10.1953C7.23219 9.68429 7.24784 9.16866 7.20313 8.64844C7.18133 8.58137 7.14224 8.52671 7.08594 8.48438C6.16841 8.41519 5.24653 8.39176 4.32031 8.41407Z" fill="#061C28"/>
</g>
<g id="Group_4">
<path id="Vector_4" opacity="0.931" fill-rule="evenodd" clip-rule="evenodd" d="M3.52344 13.9453C4.4142 13.9375 5.30482 13.9453 6.19531 13.9688C6.55109 14.2132 6.5667 14.4789 6.24219 14.7656C5.32031 14.7969 4.39844 14.7969 3.47656 14.7656C3.25836 14.6298 3.18805 14.4346 3.26563 14.1797C3.33151 14.0745 3.41745 13.9964 3.52344 13.9453Z" fill="#061C28"/>
</g>
<g id="Group_5">
<path id="Vector_5" opacity="0.931" fill-rule="evenodd" clip-rule="evenodd" d="M7.50789 13.9453C8.39865 13.9375 9.28928 13.9453 10.1798 13.9688C10.4419 14.0814 10.5278 14.2767 10.4376 14.5547C10.3985 14.6563 10.3282 14.7266 10.2266 14.7656C9.30475 14.7969 8.3829 14.7969 7.46101 14.7656C7.13903 14.4714 7.15469 14.198 7.50789 13.9453Z" fill="#061C28"/>
</g>
<g id="Group_6">
<path id="Vector_6" opacity="0.932" fill-rule="evenodd" clip-rule="evenodd" d="M11.5391 13.9453C12.4142 13.9375 13.2892 13.9453 14.1641 13.9688C14.362 14.0348 14.4713 14.1754 14.4922 14.3906C14.4697 14.5694 14.3759 14.6944 14.211 14.7656C13.3047 14.7969 12.3984 14.7969 11.4922 14.7656C11.2066 14.5962 11.1519 14.3696 11.3281 14.0859C11.3942 14.0259 11.4645 13.979 11.5391 13.9453Z" fill="#061C28"/>
</g>
<g id="Group_7">
<path id="Vector_7" opacity="0.931" fill-rule="evenodd" clip-rule="evenodd" d="M15.5234 13.9453C16.4142 13.9375 17.3048 13.9453 18.1953 13.9688C18.5511 14.2132 18.5667 14.4789 18.2422 14.7656C17.3203 14.7969 16.3985 14.7969 15.4766 14.7656C15.2584 14.6298 15.1881 14.4346 15.2656 14.1797C15.3315 14.0745 15.4175 13.9964 15.5234 13.9453Z" fill="#061C28"/>
</g>
<g id="Group_8">
<path id="Vector_8" opacity="0.931" fill-rule="evenodd" clip-rule="evenodd" d="M19.5079 13.9453C20.3987 13.9375 21.2893 13.9453 22.1798 13.9688C22.4419 14.0814 22.5278 14.2767 22.4376 14.5547C22.3985 14.6563 22.3282 14.7266 22.2266 14.7656C21.3047 14.7969 20.3829 14.7969 19.461 14.7656C19.139 14.4714 19.1547 14.198 19.5079 13.9453Z" fill="#061C28"/>
</g>
<g id="Group_9">
<path id="Vector_9" opacity="0.912" fill-rule="evenodd" clip-rule="evenodd" d="M3.47656 15.9607C3.74393 15.9109 3.93925 16.0046 4.0625 16.242C4.09375 16.5857 4.09375 16.9295 4.0625 17.2732C3.90711 17.6187 3.66492 17.689 3.33594 17.4842C3.3066 17.449 3.28317 17.4099 3.26563 17.367C3.23437 16.9764 3.23437 16.5857 3.26563 16.1951C3.31367 16.0926 3.38399 16.0145 3.47656 15.9607Z" fill="#061C28"/>
</g>
<g id="Group_10">
<path id="Vector_10" opacity="0.91" fill-rule="evenodd" clip-rule="evenodd" d="M5.07031 15.9608C5.34651 15.8939 5.54182 15.9877 5.65625 16.2421C5.68752 16.6015 5.68752 16.9608 5.65625 17.3202C5.41179 17.676 5.14617 17.6916 4.85938 17.3671C4.82812 16.9765 4.82812 16.5858 4.85938 16.1952C4.90742 16.0927 4.97774 16.0146 5.07031 15.9608Z" fill="#061C28"/>
</g>
<g id="Group_11">
<path id="Vector_11" opacity="0.917" fill-rule="evenodd" clip-rule="evenodd" d="M6.66407 15.9609C6.94251 15.8938 7.13784 15.9876 7.25001 16.2422C7.28128 16.6016 7.28128 16.9609 7.25001 17.3203C7.10751 17.5954 6.89657 17.6657 6.6172 17.5312C6.54459 17.4743 6.48993 17.404 6.45314 17.3203C6.42187 16.9609 6.42187 16.6016 6.45314 16.2422C6.49903 16.1265 6.56934 16.0327 6.66407 15.9609Z" fill="#061C28"/>
</g>
<g id="Group_12">
<path id="Vector_12" opacity="0.912" fill-rule="evenodd" clip-rule="evenodd" d="M9.10157 15.9611C9.34228 15.9107 9.52195 15.9889 9.64064 16.1955C9.6719 16.5861 9.6719 16.9767 9.64064 17.3673C9.35386 17.6918 9.08821 17.6762 8.84376 17.3205C8.8125 16.9611 8.8125 16.6017 8.84376 16.2423C8.90751 16.1241 8.99343 16.0303 9.10157 15.9611Z" fill="#061C28"/>
</g>
<g id="Group_13">
<path id="Vector_13" opacity="0.912" fill-rule="evenodd" clip-rule="evenodd" d="M10.6952 15.9611C10.9359 15.9107 11.1156 15.9889 11.2343 16.1955C11.2656 16.5861 11.2656 16.9767 11.2343 17.3673C11.0737 17.5988 10.8628 17.6535 10.6015 17.5314C10.5084 17.4696 10.4537 17.3836 10.4374 17.2736C10.3952 16.8949 10.4108 16.5199 10.4843 16.1486C10.5498 16.075 10.6201 16.0125 10.6952 15.9611Z" fill="#061C28"/>
</g>
<g id="Group_14">
<path id="Vector_14" opacity="0.916" fill-rule="evenodd" clip-rule="evenodd" d="M12.289 15.9611C12.5297 15.9107 12.7094 15.9889 12.8281 16.1955C12.8593 16.5861 12.8593 16.9767 12.8281 17.3673C12.6675 17.5988 12.4565 17.6535 12.1952 17.5314C12.1101 17.447 12.0554 17.3455 12.0312 17.2267C11.9911 16.8643 12.0067 16.5049 12.0781 16.1486C12.1435 16.075 12.2139 16.0125 12.289 15.9611Z" fill="#061C28"/>
</g>
<g id="Group_15">
<path id="Vector_15" opacity="0.912" fill-rule="evenodd" clip-rule="evenodd" d="M14.6797 15.9609C14.9718 15.9075 15.1671 16.0169 15.2656 16.289C15.2969 16.6171 15.2969 16.9453 15.2656 17.2734C15.1354 17.5966 14.9088 17.6826 14.5859 17.5312C14.5297 17.4889 14.4906 17.4342 14.4688 17.3671C14.4375 16.9765 14.4375 16.5859 14.4688 16.1953C14.5168 16.0927 14.5871 16.0146 14.6797 15.9609Z" fill="#061C28"/>
</g>
<g id="Group_16">
<path id="Vector_16" opacity="0.912" fill-rule="evenodd" clip-rule="evenodd" d="M16.2734 15.9607C16.5408 15.9109 16.7362 16.0046 16.8594 16.242C16.8907 16.6014 16.8907 16.9607 16.8594 17.3201C16.6149 17.6759 16.3493 17.6915 16.0625 17.367C16.0312 16.9764 16.0312 16.5857 16.0625 16.1951C16.1106 16.0926 16.1809 16.0145 16.2734 15.9607Z" fill="#061C28"/>
</g>
<g id="Group_17">
<path id="Vector_17" opacity="0.912" fill-rule="evenodd" clip-rule="evenodd" d="M17.8672 15.9609C18.1456 15.8938 18.341 15.9876 18.4531 16.2422C18.4844 16.6016 18.4844 16.9609 18.4531 17.3203C18.3106 17.5954 18.0997 17.6657 17.8203 17.5312C17.7477 17.4743 17.6931 17.404 17.6563 17.3203C17.625 16.9453 17.625 16.5703 17.6563 16.1953C17.7043 16.0928 17.7746 16.0146 17.8672 15.9609Z" fill="#061C28"/>
</g>
</g>
<defs>
<clipPath id="clip0_46_279">
<rect width="24" height="24" fill="white" transform="translate(0.875)"/>
</clipPath>
</defs>
</svg>
