<svg width="25" height="24" viewBox="0 0 25 24" fill="none" xmlns="http://www.w3.org/2000/svg">
<g id="realtor 1">
<g id="Group">
<path id="Vector" opacity="0.952" fill-rule="evenodd" clip-rule="evenodd" d="M11.8985 0.913876C13.9569 0.731701 15.5897 1.46608 16.7969 3.117C17.9024 4.98666 17.8868 6.84605 16.75 8.69513C15.4638 10.416 13.7529 11.1113 11.6172 10.7811C9.44406 10.2641 8.12378 8.91258 7.65629 6.72638C7.39989 4.52444 8.18898 2.8135 10.0235 1.59356C10.6187 1.26772 11.2437 1.04116 11.8985 0.913876ZM12.5547 2.03888C14.4953 2.15993 15.7532 3.1443 16.3282 4.992C16.6685 7.03805 15.9107 8.51461 14.0547 9.42169C12.1131 10.0505 10.5428 9.54267 9.34379 7.89825C8.48954 6.3525 8.58329 4.86816 9.62504 3.44513C10.4144 2.57772 11.391 2.10897 12.5547 2.03888Z" fill="#0A0C0F"/>
</g>
<g id="Group_2">
<path id="Vector_2" opacity="0.965" fill-rule="evenodd" clip-rule="evenodd" d="M10.539 11.6016C11.8672 11.5937 13.1953 11.6016 14.5234 11.625C17.3773 12.0418 19.3538 13.5809 20.4531 16.2422C20.5658 16.5491 20.6595 16.8616 20.7343 17.1797C20.9903 18.4128 21.2403 19.6471 21.4843 20.8828C21.6431 22.0119 21.1821 22.7385 20.1015 23.0625C15.1327 23.0938 10.164 23.0938 5.19524 23.0625C4.16365 22.78 3.67146 22.1004 3.71868 21.0234C3.90659 19.7553 4.10971 18.4897 4.32805 17.2266C4.97302 14.644 6.54332 12.8862 9.03899 11.9531C9.53605 11.7961 10.0361 11.6789 10.539 11.6016ZM13.7265 12.7266C13.8658 12.7539 14.0065 12.7852 14.1484 12.8203C13.6693 13.9896 12.8569 14.3099 11.7109 13.7813C11.3815 13.5366 11.1628 13.2163 11.0546 12.8203C11.9528 12.7891 12.8435 12.7578 13.7265 12.7266ZM9.78899 12.9141C9.83572 12.9127 9.86699 12.9361 9.88274 12.9844C10.0494 13.7136 10.4401 14.2918 11.0546 14.7188C10.7704 17.0974 10.5047 19.4802 10.2577 21.8672C8.5858 21.875 6.91391 21.8672 5.24211 21.8438C4.99767 21.6931 4.87267 21.4743 4.86711 21.1875C5.04495 19.9427 5.24026 18.7005 5.45305 17.4609C6.07827 15.1561 7.52361 13.6405 9.78899 12.9141ZM15.2734 13.0078C17.461 13.6564 18.8751 15.0783 19.5156 17.2734C19.789 18.6095 20.0624 19.9455 20.3359 21.2813C20.2494 21.6487 20.015 21.8518 19.6327 21.8906C18.0703 21.9141 16.5078 21.9219 14.9452 21.9141C14.6983 19.5271 14.4326 17.1443 14.1484 14.7656C14.7422 14.3203 15.1172 13.7343 15.2734 13.0078ZM12.1327 15.1641C12.4453 15.1641 12.7577 15.1641 13.0702 15.1641C13.3046 17.4141 13.539 19.6641 13.7734 21.9141C12.9921 21.9141 12.2109 21.9141 11.4296 21.9141C11.664 19.6641 11.8984 17.4141 12.1327 15.1641Z" fill="#0A0C0F"/>
</g>
</g>
</svg>
