<svg class="animate-growspin w-[300px] lg:w-[550px]" xmlns="http://www.w3.org/2000/svg" fill="none" viewBox="0 0 1000 1000"><path fill="url(#a)" fill-rule="evenodd" d="M866 739.3C837.5 840.6 777.7 921.2 692.4 960c49-29.2 76.3-99.5 80.8-192.4a581 581 0 0 0 106-93.8 492.2 492.2 0 0 1-13.4 65.5ZM743 899.9c-15.2 31-36 53.5-62.4 65 14.3-13.9 12.3-66.2-3-142.6 33.8-15.8 65.5-34 94.6-54l-.3 6.6c-3 49.4-12.8 92-28.9 125Zm224.8-576a499.9 499.9 0 0 1-291.6 643.9h-.1a499.9 499.9 0 0 1-643.7-291l-.2-.6v-.2l-.3-.6A499.9 499.9 0 0 1 314.4 36a102.5 102.5 0 0 1 17-6.5C587.8-62.6 871.5 68 967.8 324Zm-934.6 352v-.1l-.1-.2c-1.7-4.5-.4-10.2 4-17 4.4-7 11.8-14.8 22-23.6 18.6-16 46.5-34.6 81.8-55a688.7 688.7 0 0 0 36.3 96.6c-39.9 8-73.1 12.4-97.7 12.7-13.4.1-24.2-1-32-3.2-7.9-2.3-12.6-5.8-14.3-10.2Zm1.9 4.7c11.5 26.4 34 47.2 65 62.4 33 16.1 75.6 25.8 125 28.9l6.6.3a656.3 656.3 0 0 1-54-94.6c-76.4 15.3-128.7 17.3-142.6 3Zm143.6-3.2c15.8 34 34.1 65.7 54.3 94.9 44.3 2 93.8-1 146.4-9.6A998.5 998.5 0 0 1 315.7 643a1703.3 1703.3 0 0 1-137 34.5Zm138-34.8a997 997 0 0 0 63.7 120c42.7-7 87.3-17.4 133-31.5-19-40.8-38.5-85.6-57.7-133.3-48.8 17.1-95.6 32.1-139 44.8ZM455.2 597a2789 2789 0 0 1-139 44.8 1108.2 1108.2 0 0 1-48-127c41.1-19.1 86.2-38.7 134.2-58a3245.3 3245.3 0 0 0 52.8 140.2Zm1.3.6c19.3 47.6 38.7 92.5 57.7 133.3A1116.5 1116.5 0 0 0 641.5 683a2792.4 2792.4 0 0 0-44.6-138.3 3250.5 3250.5 0 0 1-140.3 52.8Zm140-53.8a3253.6 3253.6 0 0 1-140.3 52.9 3248.3 3248.3 0 0 1-52.9-140.3 3250.2 3250.2 0 0 1 140.3-52.9 3243 3243 0 0 1 52.9 140.3Zm1.2.6c17 48.5 32 95 44.6 138.3 43.3-19.5 83.6-41 120-63.7-6.9-42.4-17.3-86.9-31.3-132.3a2793 2793 0 0 1-133.3 57.7Zm133-58.6a2791 2791 0 0 1-133.3 57.7A3250.6 3250.6 0 0 0 544.7 403c48.5-17 95-32 138.3-44.6a1108.4 1108.4 0 0 1 47.8 127.2Zm1.3.5a1004 1004 0 0 1 31.3 132.1 718.5 718.5 0 0 0 116.9-89.7 655 655 0 0 0-21.8-107.2 1707 1707 0 0 1-126.4 64.8Zm126.1-65.7-8.8 5c-33.6 18.9-73.3 39-117.6 59.7a1117.6 1117.6 0 0 0-47.9-127 1758.5 1758.5 0 0 1 137.8-34.6 687.3 687.3 0 0 1 36.5 96.9Zm1.2.4a656.4 656.4 0 0 1 21.8 106.8l4.7-4.6c35.2-34.9 60.8-70.3 75-104.1 13.3-32 16.4-62.4 7.7-89.8-1 20-41.7 52.9-109.2 91.7Zm105.5-101.5c-11.5-26.4-34-47.2-65-62.4-33-16.1-75.6-25.8-125-28.9l-6.6-.3c20 29.1 38.2 60.8 54 94.6 76.4-15.3 128.7-17.3 142.6-3Zm-142.1 4c39.9-8 73.1-12.4 97.7-12.7 13.4-.1 24.2 1 32 3.2 8 2.3 12.7 5.8 14.4 10.3 1.7 4.6.4 10.3-4 17.2a114.6 114.6 0 0 1-22 23.6 561.7 561.7 0 0 1-81.8 55 688.8 688.8 0 0 0-36.3-96.6Zm-1.5-.8a655 655 0 0 0-54.3-94.9c-44.5-2-94.3 1.1-147.2 9.7a999 999 0 0 1 63.7 120 1707 1707 0 0 1 137.8-34.8Zm-138.7 35a997.3 997.3 0 0 0-63.9-120c-42.3 7-86.7 17.3-132 31.3 19 40.8 38.4 85.6 57.6 133.3 48.5-17 95-32 138.3-44.6Zm-139.2 44.9a2793.2 2793.2 0 0 0-57.7-133.3A1117 1117 0 0 0 358.5 317c12.7 43.3 27.6 89.8 44.6 138.3a3247.1 3247.1 0 0 1 140.3-52.8Zm-141.2 53.2c-17-48.5-32-95-44.6-138.3a1001.5 1001.5 0 0 0-120.9 64.2 1003 1003 0 0 0 31.4 132.1c41-19.1 86.1-38.7 134-58Zm-135 58.5c-14-45.3-24.4-89.6-31.4-132a717.4 717.4 0 0 0-116.1 89.2 655 655 0 0 0 21.8 107.2 1703 1703 0 0 1 125.6-64.4Zm-125.4 65.3a688 688 0 0 0 36.5 97l9.8-2.1c37.6-8 80.5-18.8 127.1-32.4A1109.8 1109.8 0 0 1 267.4 515a1755.3 1755.3 0 0 0-125.6 64.4Zm-1.2-.4a656.2 656.2 0 0 1-21.8-106.8l-4.7 4.6C78.9 511.8 53.3 547.2 39 581c-13.3 32-16.4 62.4-7.7 89.8 1-20 41.7-52.9 109.2-91.7Zm440.3 381.8c32 13.3 62.5 16.4 90 7.7-20-1-53-41.7-91.8-109.2-36 10.5-72 17.7-107.3 21.9l4.6 4.6c35 35.2 70.5 60.8 104.5 75Zm77.7 2c6.9 4.4 12.6 5.7 17.1 4h.1c4.5-1.8 8-6.5 10.3-14.3 2.3-7.9 3.3-18.7 3.2-32-.3-24.7-4.7-58-12.7-97.8a689.2 689.2 0 0 1-96.5 36.3c20.3 35.3 39 63.1 55 81.8a114.5 114.5 0 0 0 23.5 22ZM772.3 767a654.9 654.9 0 0 1-95 54.3c-8-40-19.7-86.6-34.6-137.8 43.2-19.4 83.5-40.8 120-63.5a718.5 718.5 0 0 1 9.6 147Zm-98 44.9c-7.9-37.8-18.9-81-32.6-128a1117.6 1117.6 0 0 1-127 47.9 1758.8 1758.8 0 0 0 64.8 126.4 687.8 687.8 0 0 0 97-36.5l-2.1-9.8Zm-56.1-575.2c-42.4 7-86.7 17.3-132 31.2-22.5-48.2-44.4-91-64.8-126.4a655 655 0 0 1 106.8-21.8 718 718 0 0 1 90 117Zm-192.8-86.1-5-8.8a687.9 687.9 0 0 0-96.8 36.5l2 9.8c8 37.8 19 81 32.7 128a1117.5 1117.5 0 0 1 127-47.9c-20.7-44.3-41-84-59.9-117.6Zm102-31.8c-35 4.2-70.7 11.4-106.5 21.8-39-67.8-72-108.5-92-109.2l3.7-1.3c26.3-7 55.3-3.6 85.6 9 34 14.2 69.5 39.8 104.4 75a519 519 0 0 1 4.7 4.7Zm-214-81.4 6.2-2.5C305 48.6 307 101 322.4 177.7a656 656 0 0 0-95.6 54.7l.4-7.3c3-49.4 12.7-92 28.9-125 14.2-29 33.4-50.6 57.4-62.7Zm-2.7 42c.3 24.7 4.7 58 12.7 97.8a688.7 688.7 0 0 1 96.5-36.3A561.7 561.7 0 0 0 365 59a114.6 114.6 0 0 0-23.5-22c-7-4.4-12.6-5.7-17.2-4-4.5 1.7-8 6.4-10.3 14.3-2.3 7.9-3.3 18.7-3.2 32Zm-84 154.2c29.5-20.4 61.6-38.9 96-55 8 40.1 19.7 86.7 34.6 137.9a1003 1003 0 0 0-120.7 64 720 720 0 0 1-9.8-146.9ZM381 763.5c42.6-7 87.2-17.4 132.8-31.4 22.5 48.2 44.4 91 64.8 126.4A655 655 0 0 1 471 880.3c-31-32-61.5-71.5-90-116.8Zm277.6 209.2c-56 10.4-123.2-24.4-188-91.3a580.7 580.7 0 0 1-141.2-.6 492 492 0 0 0 53.3 40.4c88 57.5 186.2 78.6 276 51.5Zm-330.6-93c45 6 92.7 6.4 141.7.8A720.2 720.2 0 0 1 380 763.6a720.3 720.3 0 0 1-146.2 9.7A579 579 0 0 0 328 879.6Zm-95.6-106.4a581 581 0 0 0 93.8 106 492.2 492.2 0 0 1-65.5-13.4C159.4 837.6 78.8 778 40 692.4c29.2 49.1 99.5 76.4 192.4 80.9ZM119.6 470a720 720 0 0 1 116-89 722.5 722.5 0 0 1-9.9-146.8A578.7 578.7 0 0 0 120.4 328c-6 45.1-6.5 93-.8 142.1Zm644 149.3a721 721 0 0 1 9.7 147C814 738 849.7 706.2 879.6 672c6-45.1 6.5-93 .8-142.1a721 721 0 0 1-116.9 89.5ZM881.2 529a581 581 0 0 1-.5 141.6c15-17.2 28.5-35 40.4-53.3 57.5-88 78.6-186.2 51.5-276 10.4 56.2-24.4 123.1-91.4 187.7ZM960 307.5c-29.2-49-99.5-76.3-192.4-80.8a580.9 580.9 0 0 0-93.8-106 492 492 0 0 1 65.5 13.4c101.3 28.3 181.9 88 220.7 173.4Zm-193.7-80.8A579.1 579.1 0 0 0 672 120.4c-45.3-6-93.3-6.5-142.5-.8 31 32.1 61.3 71.6 89.7 116.9a721.2 721.2 0 0 1 147.1-9.8Zm-739 432c-27.1-89.8-6-188 51.5-276 12-18.2 25.4-36 40.4-53.3a581 581 0 0 0-.5 141.6c-67 64.6-101.8 131.5-91.4 187.6Zm643.3-539.5c-45.1-6-93-6.2-142-.5-64-66-130.2-101-186-91.8 89.4-26.5 187-5.3 274.7 52 18.2 11.8 36 25.3 53.3 40.3ZM225.8 233c4.2-91.4 30.6-161.1 78-191.3-83.4 39.4-141.8 119-169.7 219-5.9 21-10.4 42.8-13.5 65.4 29.7-33.8 65-65.3 105.2-93.1Zm654.8 439.3c-17 126.2-77.7 230.9-173.2 281.3a499 499 0 0 0 270.5-597c25 105-13.6 219.8-97.3 315.7ZM119.4 327.6c-83.7 96-122.3 210.6-97.3 315.7a499 499 0 0 1 270.5-597c-95.5 50.4-156.3 155-173.2 281.3Zm553-208.2c-96-83.7-210.6-122.3-315.7-97.3a499 499 0 0 1 597 270.5c-50.4-95.5-155-156.3-281.3-173.2Zm-626.1 588c50.4 95.5 155 156.3 281.3 173.2 96 83.7 210.7 122.3 315.7 97.3a499 499 0 0 1-597-270.5Z" clip-rule="evenodd"></path><defs><radialGradient id="a" cx="0" cy="0" r="1" gradientTransform="matrix(0 -423 1013 0 499.4 499.4)" gradientUnits="userSpaceOnUse"><stop offset=".4" stop-color="#009CD2" stop-opacity="0"></stop><stop offset=".6" stop-color="#009CD2"></stop></radialGradient></defs></svg>