<svg width="158" height="120" viewBox="0 0 158 120" fill="none" xmlns="http://www.w3.org/2000/svg">
<g id="Frame" clip-path="url(#clip0_36_5533)">
<g id="Group">
<path id="Vector" d="M147.789 29.0458C137.877 8.92485 113.256 0.368504 90.8198 0.0133489C83.6035 -0.0999166 76.1644 0.479849 69.691 3.67048C63.2176 6.86111 57.8692 13.1368 57.5409 20.3455C57.3585 24.3309 58.6755 28.2222 59.0882 32.1904C59.501 36.1585 58.7177 40.7045 55.456 43.0005C50.0788 46.7843 43.0621 42.0598 37.6081 38.3854C6.6866 17.5599 2.40555 66.7171 12.1157 85.4348C19.7755 100.198 34.166 110.825 49.979 115.982C67.395 121.662 86.7865 121.056 103.815 114.302C120.841 107.547 135.375 94.6937 144.16 78.6196C152.408 63.5304 155.395 44.5651 147.827 29.1245C147.814 29.0976 147.802 29.0708 147.789 29.0458Z" fill="#2E6CE7"/>
<path id="Vector_2" d="M74.5193 102.528C67.9192 102.528 61.4707 101.517 55.3486 99.52C42.7896 95.4233 32.6341 87.3833 27.4853 77.4601C26.0935 74.7782 24.6671 68.6792 24.8187 61.6241C24.9147 57.1722 25.6097 53.8375 26.3104 51.7335C26.7826 52.0023 27.324 52.3344 27.9345 52.7471C33.2349 56.3159 41.2422 61.7105 50.9773 61.7085C56.1971 61.7085 61.1923 60.1343 65.4215 57.1587C73.3981 51.5434 77.468 41.5415 76.3104 30.3993C76.0781 28.1647 75.7018 26.1988 75.3697 24.4672C75.1681 23.419 74.9032 22.0291 74.8475 21.3361C75.1201 20.837 75.9956 19.8636 77.3432 19.1994C79.9541 17.9132 83.7226 17.3142 89.2035 17.3142C89.6508 17.3142 90.0981 17.318 90.5454 17.3257C105.5 17.5619 125.399 22.7778 132.256 36.698L132.254 36.6922L132.279 36.7421C136.664 45.6882 135.395 58.5525 128.967 70.3129C122.146 82.7932 110.651 92.9602 97.4315 98.205C90.3016 101.033 82.3787 102.528 74.5193 102.528Z" fill="#113397"/>
<g id="Group_2">
<path id="Vector_3" d="M30.3074 97.5735L30.2018 97.6541C28.6257 98.8693 26.3565 98.5967 25.1375 97.0245C23.9203 95.4579 22.6667 93.5977 21.5149 91.4284C18.6449 86.0339 18.5047 82.0273 18.1016 78.6927L25.0492 76.8306C25.5694 80.0673 25.7595 83.5286 28.1515 88.4086C29.0557 90.2516 29.8658 91.317 30.6606 92.1368C32.181 93.7071 32.039 96.2374 30.3074 97.5735Z" fill="#EAEEF0"/>
<g id="Group_3" opacity="0.15">
<path id="Vector_4" d="M19.4262 86.4044L26.5638 84.4923C25.6231 81.5436 25.4158 79.1305 25.0472 76.8325L18.0996 78.6947C18.3665 80.8986 18.5239 83.4019 19.4262 86.4044Z" fill="#8C5213"/>
</g>
<g id="Group_4">
<path id="Vector_5" d="M26.654 81.985L18.065 84.2868C17.7194 84.3789 17.3643 84.1735 17.2721 83.8279L16.3545 80.4012L26.1952 77.7634L27.1128 81.1902C27.2049 81.5377 26.9995 81.8928 26.654 81.985Z" fill="url(#paint0_linear_36_5533)"/>
<g id="Group_5" opacity="0.47">
<path id="Vector_6" d="M25.4444 82.3096L19.2763 83.9625C18.2626 84.2351 17.2202 83.6323 16.9476 82.6187L16.4005 80.5761C16.3755 80.4801 16.4312 80.3822 16.5272 80.3572L26.0223 77.8136C26.1183 77.7886 26.2162 77.8443 26.2411 77.9403L26.7883 79.9829C27.0609 80.9965 26.4581 82.039 25.4444 82.3096Z" fill="#8C5213"/>
</g>
<path id="Vector_7" d="M22.035 48.4777L9.33009 51.8814C2.61671 53.6802 -1.3687 60.5817 0.430107 67.2951L1.82577 72.5053C3.62458 79.2187 10.5261 83.2041 17.2395 81.4053L29.9444 78.0016C33.0199 77.178 36.2316 76.9976 39.38 77.4698L59.8196 80.5433L46.6348 31.3362L30.4704 44.2177C27.9843 46.2028 25.1105 47.6541 22.035 48.4777Z" fill="#EAEEF0"/>
<path id="Vector_8" d="M58.4414 54.544C62.0831 68.132 62.5707 79.8079 59.5337 80.62C56.4966 81.434 51.0829 71.0788 47.4412 57.4908C43.7994 43.9028 43.3118 32.2287 46.3488 31.4148C49.3859 30.6008 54.7996 40.9559 58.4414 54.544Z" fill="url(#paint1_linear_36_5533)"/>
<g id="Group_6">
<path id="Vector_9" d="M23.7071 63.8511C22.2232 58.3126 21.2633 53.0908 20.8505 48.7944L9.33009 51.8814C2.61671 53.6802 -1.3687 60.5817 0.430107 67.2951L1.82577 72.5053C3.62458 79.2187 10.5261 83.2041 17.2395 81.4053L28.7599 78.3183C26.9707 74.3905 25.1911 69.3896 23.7071 63.8511Z" fill="url(#paint2_linear_36_5533)"/>
</g>
<g id="Group_7" opacity="0.47">
<path id="Vector_10" d="M59.5222 76.9093C59.4703 77.2375 59.0557 77.3489 58.8464 77.0897C56.8268 74.5883 53.3098 67.8135 50.3361 56.7154C47.3624 45.6173 47.0188 37.9901 47.5179 34.8148C47.5698 34.4865 47.9844 34.3752 48.1937 34.6343C50.2133 37.1358 53.7303 43.9106 56.704 55.0087C59.6777 66.1068 60.0213 73.734 59.5222 76.9093Z" fill="#8C5213"/>
</g>
<g id="Group_8">
<g id="Group_9" opacity="0.31">
<path id="Vector_11" d="M59.7563 80.5337L59.8235 80.5433L59.8139 80.5088C59.7967 80.5184 59.7755 80.5241 59.7563 80.5337Z" fill="#8C5213"/>
</g>
</g>
<path id="Vector_12" d="M14.6247 55.4272C18.8693 54.2907 23.1158 53.1523 27.3604 52.0139C32.106 48.8808 36.8497 45.7478 41.5953 42.6147C41.532 43.2828 41.5147 44.1256 41.6376 45.0855C41.7911 46.2853 42.1156 47.2663 42.4131 47.9805C38.1954 50.766 33.9777 53.5497 29.76 56.3352C23.9681 57.8864 18.1762 59.4395 12.3824 60.9906C11.6126 59.9175 11.4782 58.5218 12.0407 57.3604C12.8029 55.7823 14.4538 55.4579 14.6247 55.4272Z" fill="url(#paint3_linear_36_5533)"/>
</g>
<path id="Vector_13" opacity="0.2" d="M51.2635 69.0768C48.5298 69.0749 45.796 69.0749 43.0623 69.073C37.0189 69.0711 31.5994 69.5587 25.2259 71.5149C22.5977 72.3212 19.242 73.596 14.0778 74.8073C12.9701 75.0665 11.3249 75.4312 9.14599 75.508C6.45449 75.604 4.2295 75.2181 2.71289 74.8515C5.32184 80.1097 11.3518 82.9816 17.2397 81.4036L29.9446 77.9999C33.0201 77.1763 36.2318 76.9939 39.3802 77.4681L58.0556 80.2767C56.0897 79.0423 53.6075 74.8956 51.2635 69.0768Z" fill="url(#paint4_linear_36_5533)"/>
</g>
<g id="Group_10">
<path id="Vector_14" d="M51.8855 105.266C49.9216 105.266 48.4779 104.08 47.2761 103.091C45.8997 101.958 45.0627 101.336 43.8513 101.659C43.0872 101.864 42.3001 101.409 42.0947 100.645C41.8893 99.8791 42.3443 99.092 43.1103 98.8885C45.8056 98.1648 47.6313 99.6679 49.0999 100.875C50.4764 102.006 51.3134 102.632 52.5248 102.308C53.7361 101.983 54.1489 101.023 54.7747 99.355C55.4428 97.5754 56.274 95.3619 58.9694 94.6382C61.6647 93.9164 63.4904 95.4176 64.959 96.6251C66.3355 97.7559 67.1706 98.3817 68.3839 98.0573C69.5952 97.7328 70.0099 96.773 70.6357 95.1047C71.3038 93.3251 72.135 91.1116 74.8323 90.3878C77.5276 89.666 79.3553 91.1673 80.8239 92.3748C82.2003 93.5075 83.0393 94.1314 84.2506 93.8069C85.0185 93.6034 85.8037 94.0565 86.0072 94.8225C86.2126 95.5885 85.7576 96.3756 84.9916 96.5791C82.2963 97.3009 80.4687 95.7996 79.0001 94.5921C77.6236 93.4595 76.7828 92.8355 75.5733 93.16C74.362 93.4844 73.9473 94.4443 73.3215 96.1126C72.6534 97.8922 71.8221 100.106 69.1249 100.829C66.4295 101.551 64.6039 100.05 63.1352 98.8425C61.7588 97.7117 60.9198 97.0859 59.7104 97.4103C58.499 97.7348 58.0863 98.6946 57.4604 100.363C56.7924 102.143 55.9611 104.356 53.2658 105.08C52.7782 105.208 52.3193 105.266 51.8855 105.266Z" fill="#FDC014"/>
</g>
<g id="Group_11">
<path id="Vector_15" d="M123.066 77.3853C121.102 77.3853 119.659 76.1989 118.457 75.2102C117.08 74.0795 116.243 73.4537 115.032 73.7781C114.264 73.9835 113.481 73.5285 113.275 72.7626C113.07 71.9966 113.525 71.2095 114.291 71.006C116.986 70.2842 118.812 71.7854 120.281 72.9929C121.657 74.1237 122.494 74.7495 123.705 74.4251C124.917 74.1006 125.33 73.1408 125.957 71.4725C126.625 69.6929 127.457 67.4794 130.152 66.7557C132.847 66.0357 134.673 67.537 136.142 68.7426C137.518 69.8752 138.355 70.4992 139.566 70.1747C140.778 69.8503 141.192 68.8904 141.818 67.2222C142.486 65.4425 143.32 63.2291 146.015 62.5053C148.712 61.7854 150.538 63.2847 152.006 64.4923C153.383 65.6249 154.222 66.2488 155.433 65.9244C156.199 65.7209 156.986 66.174 157.19 66.9399C157.395 67.7059 156.94 68.493 156.174 68.6965C153.479 69.4184 151.651 67.9171 150.183 66.7096C148.806 65.5769 147.967 64.953 146.756 65.2774C145.545 65.6019 145.13 66.5618 144.504 68.23C143.836 70.0096 143.003 72.2231 140.307 72.9469C137.614 73.6687 135.786 72.1674 134.318 70.9599C132.941 69.8273 132.104 69.2033 130.893 69.5278C129.682 69.8522 129.269 70.8121 128.643 72.4804C127.975 74.26 127.144 76.4734 124.448 77.1972C123.959 77.3277 123.5 77.3853 123.066 77.3853Z" fill="#FDC014"/>
</g>
<g id="Group_12">
<path id="Vector_16" d="M38.0996 118.451C36.1357 118.451 34.692 117.264 33.4903 116.276C32.1138 115.145 31.2749 114.517 30.0654 114.844C29.2975 115.047 28.5143 114.594 28.3088 113.828C28.1034 113.062 28.5584 112.275 29.3244 112.071C32.0178 111.35 33.8454 112.851 35.314 114.058C36.6905 115.191 37.5275 115.813 38.7389 115.491C39.9502 115.166 40.363 114.206 40.9888 112.538C41.6569 110.758 42.4881 108.545 45.1835 107.821C47.8788 107.097 49.7045 108.6 51.1731 109.808C52.5496 110.939 53.3866 111.565 54.598 111.24C55.8093 110.916 56.224 109.956 56.8498 108.288C57.5179 106.508 58.3511 104.293 61.0464 103.571C63.7418 102.851 65.5694 104.35 67.038 105.558C68.4144 106.69 69.2534 107.314 70.4647 106.99C71.2326 106.786 72.0178 107.239 72.2213 108.005C72.4267 108.771 71.9717 109.558 71.2058 109.762C68.5085 110.484 66.6809 108.983 65.2142 107.775C63.8377 106.642 62.9988 106.018 61.7874 106.343C60.5761 106.667 60.1614 107.627 59.5356 109.295C58.8675 111.075 58.0362 113.289 55.339 114.012C52.6437 114.734 50.816 113.233 49.3494 112.025C47.9729 110.895 47.1359 110.269 45.9245 110.593C44.7131 110.918 44.3004 111.878 43.6746 113.546C43.0065 115.325 42.1752 117.539 39.4799 118.263C38.9923 118.393 38.5335 118.451 38.0996 118.451Z" fill="#FDC014"/>
</g>
<g id="Group_13">
<path id="Vector_17" d="M77.4585 45.3598C77.232 46.1488 76.633 46.9513 75.6636 47.7633L79.5088 52.5224L75.7692 53.5245L72.6227 49.1859L71.6033 49.4585L72.2176 54.4748L68.7812 55.3963L67.0957 41.7794L71.5898 40.5758C73.1756 40.1515 74.4733 40.1438 75.4812 40.5566C76.4891 40.9693 77.1399 41.7199 77.4336 42.818C77.6774 43.7222 77.6851 44.5708 77.4585 45.3598ZM71.2865 46.9935L72.4576 46.6787C73.1756 46.4867 73.6401 46.1354 73.8552 45.6266C74.0702 45.116 74.097 44.5669 73.9396 43.9737C73.8187 43.5207 73.5845 43.2269 73.237 43.0887C72.8895 42.9524 72.4211 42.9639 71.8298 43.1233L70.8469 43.3863L71.2865 46.9935Z" fill="white"/>
<path id="Vector_18" d="M86.8325 36.4924L86.7788 39.159L82.3787 40.3377L82.7262 43.2212L86.5791 42.1883L86.9055 44.6917L83.0525 45.7245L83.4365 48.8211L88.1379 47.5617L88.4605 50.1265L80.3015 52.3131L78.616 38.6963L86.8325 36.4924Z" fill="white"/>
<path id="Vector_19" d="M96.2741 33.9622L96.2377 36.6229L92.0833 37.7364L92.4941 41.0077L96.1398 40.0305L96.4623 42.5953L92.8167 43.5724L93.4444 48.7884L90.0081 49.7099L88.3225 36.0931L96.2741 33.9622Z" fill="white"/>
<path id="Vector_20" d="M105.546 31.478L105.491 34.1446L101.093 35.3233L101.44 38.2068L105.293 37.1739L105.619 39.6773L101.766 40.7101L102.15 43.8067L106.854 42.5473L107.176 45.1121L99.0173 47.2987L97.3318 33.68L105.546 31.478Z" fill="white"/>
<path id="Vector_21" d="M117.399 34.6572C117.172 35.4462 116.574 36.2486 115.604 37.0607L119.449 41.8198L115.71 42.8219L112.563 38.4832L111.544 38.7558L112.16 43.7722L108.724 44.6936L107.038 31.0768L111.532 29.8731C113.118 29.4489 114.416 29.4412 115.424 29.852C116.431 30.2648 117.082 31.0173 117.376 32.1135C117.62 33.0196 117.626 33.8681 117.399 34.6572ZM111.229 36.2909L112.4 35.9779C113.118 35.786 113.583 35.4347 113.798 34.9259C114.013 34.4153 114.039 33.8662 113.882 33.273C113.761 32.82 113.527 32.5262 113.179 32.3899C112.832 32.2536 112.363 32.2651 111.77 32.4226L110.789 32.6856L111.229 36.2909Z" fill="white"/>
<path id="Vector_22" d="M133.596 38.0302L132.026 34.6649L126.606 36.1181L125.929 40.0843L124.758 40.3972L127.411 25.8205L128.827 25.4404L134.767 37.7134L133.596 38.0302ZM126.8 35.0334L131.598 33.7472L128.248 26.6096L126.8 35.0334Z" fill="white"/>
<path id="Vector_23" d="M79.2995 57.3274L79.288 58.3429L74.1315 59.7252L74.7651 64.9603L79.24 63.7605L79.3609 64.7396L74.886 65.9394L75.6443 72.1729L74.5116 72.4762L72.8779 59.0494L79.2995 57.3274Z" fill="white"/>
<path id="Vector_24" d="M89.7928 60.3857C89.4338 61.2649 88.7043 61.9925 87.6062 62.5704L91.9237 67.8094L90.6586 68.1492L86.5369 63.0407L83.9298 63.7395L84.6709 69.7541L83.5382 70.0574L81.9026 56.6307L85.0759 55.7802C87.7962 55.0507 89.428 55.7015 89.9694 57.7288C90.2113 58.6214 90.1518 59.5064 89.7928 60.3857ZM86.0627 62.1749C87.3221 61.837 88.1476 61.2784 88.5392 60.499C88.9308 59.7195 89.0114 58.9017 88.783 58.0455C88.5872 57.316 88.2071 56.8418 87.6446 56.6307C87.0821 56.4176 86.2835 56.4483 85.2506 56.7247L83.1543 57.2872L83.8166 62.7777L86.0627 62.1749Z" fill="white"/>
<path id="Vector_25" d="M94.1239 53.3557L95.7576 66.7825L94.6249 67.0858L92.9912 53.659L94.1239 53.3557Z" fill="white"/>
<path id="Vector_26" d="M104.83 50.4856L104.819 51.5011L99.549 52.9122L100.16 57.9093L104.73 56.6845L104.851 57.6636L100.28 58.8884L100.937 64.3597L106.489 62.8719L106.616 63.8701L99.9311 65.6613L98.2974 52.2345L104.83 50.4856Z" fill="white"/>
<path id="Vector_27" d="M118.061 60.806L116.606 61.1957L108.956 50.4739C109.236 51.668 109.495 53.2921 109.735 55.3462L110.638 62.7949L109.561 63.0828L107.927 49.6561L109.399 49.2606L117.038 59.946C116.735 58.6655 116.499 57.2775 116.328 55.7839L115.328 47.673L116.405 47.385L118.061 60.806Z" fill="white"/>
<path id="Vector_28" d="M127.198 45.6171C128.347 46.0586 129.167 47.1913 129.657 49.017C130.045 50.4645 130.173 51.8601 130.041 53.204C129.908 54.5478 129.436 55.7342 128.626 56.7613C127.816 57.7883 126.616 58.514 125.03 58.9402L122.216 59.6946L120.582 46.266L123.112 45.5883C124.686 45.1659 126.048 45.1755 127.198 45.6171ZM121.836 46.9436L123.247 58.4065L124.928 57.9553C126.238 57.604 127.209 56.9724 127.843 56.0625C128.476 55.1506 128.825 54.1062 128.895 52.9256C128.964 51.7469 128.833 50.5413 128.501 49.3068C128.094 47.7826 127.449 46.8553 126.572 46.5251C125.694 46.193 124.65 46.1911 123.441 46.5136L121.836 46.9436Z" fill="white"/>
</g>
<path id="Vector_29" d="M78.1399 110.445C77.5812 110.781 77.372 111.611 77.8001 112.144C78.2128 112.657 79.0345 112.672 79.499 112.212C79.908 111.805 79.9675 111.1 79.5662 110.649C79.1996 110.236 78.5737 110.186 78.1399 110.445Z" fill="#67C1E9"/>
<path id="Vector_30" d="M91.0905 8.79631C90.5319 9.13227 90.3226 9.9616 90.7507 10.4953C91.1635 11.0079 91.9852 11.0232 92.4497 10.5625C92.8586 10.1555 92.9182 9.45095 92.5169 8.99981C92.1503 8.58706 91.5244 8.53714 91.0905 8.79631Z" fill="#67C1E9"/>
<path id="Vector_31" d="M138.867 40.4473C138.309 40.7833 138.1 41.6126 138.528 42.1463C138.94 42.6589 139.762 42.6742 140.227 42.2135C140.635 41.8084 140.695 41.1019 140.294 40.6508C139.927 40.2381 139.301 40.1881 138.867 40.4473Z" fill="#67C1E9"/>
<path id="Vector_32" d="M85.6577 110.445C85.099 110.781 84.8898 111.611 85.3179 112.144C85.7306 112.657 86.5523 112.672 87.0169 112.212C87.4258 111.805 87.4853 111.1 87.0841 110.649C86.7155 110.236 86.0915 110.186 85.6577 110.445Z" fill="#67C1E9"/>
<path id="Vector_33" d="M141.893 37.3352C141.334 37.6711 141.125 38.5005 141.553 39.0342C141.966 39.5467 142.788 39.5621 143.252 39.1013C143.661 38.6963 143.721 37.9898 143.319 37.5387C142.953 37.124 142.327 37.0741 141.893 37.3352Z" fill="#67C1E9"/>
<path id="Vector_34" d="M62.352 52.3748C61.7934 52.7108 61.5841 53.5401 62.0122 54.0738C62.425 54.5864 63.2466 54.6017 63.7112 54.141C64.1201 53.734 64.1796 53.0294 63.7784 52.5783C63.4098 52.1655 62.7859 52.1156 62.352 52.3748Z" fill="#67C1E9"/>
<path id="Vector_35" d="M83.1945 13.2944C82.6359 13.6304 82.4266 14.4597 82.8548 14.9934C83.2675 15.506 84.0892 15.5213 84.5537 15.0606C84.9626 14.6536 85.0222 13.949 84.6209 13.4979C84.2543 13.0832 83.6284 13.0333 83.1945 13.2944Z" fill="#67C1E9"/>
<path id="Vector_36" d="M80.1864 106.89C79.3455 107.393 79.0326 108.641 79.6757 109.441C80.2939 110.211 81.5302 110.236 82.2271 109.543C82.8414 108.932 82.9316 107.873 82.3288 107.195C81.7778 106.573 80.8391 106.498 80.1864 106.89Z" fill="#67C1E9"/>
<path id="Vector_37" d="M63.2025 47.3393C62.3616 47.8423 62.0487 49.0901 62.6918 49.8907C63.31 50.6605 64.5463 50.6854 65.2432 49.9924C65.8575 49.3819 65.9477 48.3222 65.3449 47.6446C64.792 47.0226 63.8533 46.9477 63.2025 47.3393Z" fill="#67C1E9"/>
<path id="Vector_38" d="M67.6119 29.8809C66.771 30.3839 66.4581 31.6317 67.1012 32.4322C67.7194 33.2021 68.9557 33.227 69.6526 32.534C70.2669 31.9235 70.3571 30.8638 69.7543 30.1861C69.2034 29.5661 68.2646 29.4912 67.6119 29.8809Z" fill="#67C1E9"/>
</g>
</g>
<defs>
<linearGradient id="paint0_linear_36_5533" x1="-3.5721" y1="104.878" x2="51.0717" y2="53.3837" gradientUnits="userSpaceOnUse">
<stop stop-color="#FEC200"/>
<stop offset="1" stop-color="#FD5025"/>
</linearGradient>
<linearGradient id="paint1_linear_36_5533" x1="7.24057" y1="120.782" x2="98.7548" y2="-8.90512" gradientUnits="userSpaceOnUse">
<stop stop-color="#FEC200"/>
<stop offset="1" stop-color="#FD5025"/>
</linearGradient>
<linearGradient id="paint2_linear_36_5533" x1="-2.36944" y1="93.4669" x2="49.1883" y2="18.8305" gradientUnits="userSpaceOnUse">
<stop stop-color="#FEC200"/>
<stop offset="1" stop-color="#FD5025"/>
</linearGradient>
<linearGradient id="paint3_linear_36_5533" x1="44.4488" y1="46.8657" x2="16.4825" y2="55.1862" gradientUnits="userSpaceOnUse">
<stop stop-color="white"/>
<stop offset="1" stop-color="white"/>
</linearGradient>
<linearGradient id="paint4_linear_36_5533" x1="27.3282" y1="58.1576" x2="31.3419" y2="83.6278" gradientUnits="userSpaceOnUse">
<stop offset="0.2799" stop-color="#603813"/>
<stop offset="1" stop-color="#603813"/>
</linearGradient>
<clipPath id="clip0_36_5533">
<rect width="157.238" height="119.845" fill="white"/>
</clipPath>
</defs>
</svg>
