<svg width="25" height="24" viewBox="0 0 25 24" fill="none" xmlns="http://www.w3.org/2000/svg">
<g id="information (1) 1" clip-path="url(#clip0_46_328)">
<g id="Group">
<path id="Vector" opacity="0.934" fill-rule="evenodd" clip-rule="evenodd" d="M11.2734 -0.0234375C11.9922 -0.0234375 12.711 -0.0234375 13.4297 -0.0234375C18.1065 0.583528 21.4424 3.02103 23.4375 7.28906C23.9126 8.45527 24.2173 9.65841 24.3516 10.8984C24.3516 11.6172 24.3516 12.336 24.3516 13.0547C23.7446 17.7315 21.3071 21.0674 17.0391 23.0625C15.8729 23.5376 14.6698 23.8423 13.4297 23.9766C12.711 23.9766 11.9922 23.9766 11.2734 23.9766C6.59658 23.3695 3.26065 20.932 1.26562 16.6641C0.790496 15.4979 0.485809 14.2947 0.351562 13.0547C0.351562 12.336 0.351562 11.6172 0.351562 10.8984C0.958528 6.22167 3.39603 2.88573 7.66406 0.890625C8.83027 0.415496 10.0334 0.110809 11.2734 -0.0234375ZM11.3672 0.820312C16.1814 0.6339 19.7986 2.60265 22.2188 6.72656C23.6056 9.42727 23.8869 12.2398 23.0625 15.1641C22.0016 18.475 19.8844 20.8422 16.7109 22.2656C13.0253 23.7102 9.50967 23.3821 6.16406 21.2812C2.30875 18.4827 0.707187 14.7093 1.35938 9.96094C2.0915 6.47095 4.00556 3.85377 7.10156 2.10938C8.44791 1.40979 9.86977 0.980105 11.3672 0.820312Z" fill="#061C28"/>
</g>
<g id="Group_2">
<path id="Vector_2" opacity="0.934" fill-rule="evenodd" clip-rule="evenodd" d="M11.4609 1.57008C15.0573 1.3748 18.0338 2.6248 20.3906 5.32008C22.6637 8.2389 23.3044 11.4889 22.3124 15.0701C21.1484 18.4841 18.8593 20.7732 15.4452 21.9373C11.8649 22.9243 8.6149 22.2837 5.69525 20.0154C2.85931 17.5248 1.63275 14.392 2.01556 10.617C2.64842 6.78197 4.71874 4.03981 8.22649 2.39039C9.27148 1.9612 10.3496 1.68776 11.4609 1.57008ZM11.5077 2.41383C7.82089 2.90918 5.17245 4.83104 3.56243 8.17946C2.13795 11.8965 2.68483 15.2871 5.20306 18.3513C7.9121 21.1559 11.1699 22.1011 14.9765 21.1873C17.8218 20.2793 19.8764 18.4746 21.1406 15.7732C22.4574 12.4211 22.098 9.26485 20.0624 6.30446C17.8914 3.54362 15.0398 2.24675 11.5077 2.41383Z" fill="#061C28"/>
</g>
<g id="Group_3">
<path id="Vector_3" opacity="0.934" fill-rule="evenodd" clip-rule="evenodd" d="M12.1812 5.34375C13.315 5.36413 13.9434 5.93741 14.0664 7.06358C13.9693 8.10321 13.4016 8.67648 12.3631 8.7834C11.2993 8.68974 10.7205 8.11095 10.6267 7.04704C10.7161 6.08141 11.2343 5.51364 12.1812 5.34375ZM12.2473 5.93907C11.6326 6.05798 11.2908 6.43282 11.222 7.06358C11.2992 7.73609 11.6741 8.11095 12.3465 8.18808C13.0267 8.10877 13.4015 7.72842 13.471 7.04704C13.3719 6.33599 12.964 5.96666 12.2473 5.93907Z" fill="#061C28"/>
</g>
<g id="Group_4">
<path id="Vector_4" opacity="0.944" fill-rule="evenodd" clip-rule="evenodd" d="M10.2628 9.57727C11.2771 9.57174 12.2914 9.57727 13.3056 9.5938C13.5293 9.65211 13.6781 9.78993 13.7521 10.0072C13.7631 11.8042 13.7742 13.6012 13.7852 15.3982C13.8311 15.5948 13.9248 15.7656 14.0663 15.9109C14.253 16.0246 14.4514 16.1128 14.6616 16.1754C14.7347 16.2374 14.7953 16.3091 14.8435 16.3904C14.8962 16.7297 14.9072 17.0715 14.8766 17.4157C14.7849 17.6287 14.625 17.7555 14.397 17.7961C13.03 17.8181 11.6629 17.8181 10.2959 17.7961C9.87373 17.6746 9.70836 17.3935 9.79981 16.9527C9.7967 16.7626 9.81324 16.5752 9.84942 16.3904C9.89764 16.3091 9.95827 16.2374 10.0313 16.1754C10.2415 16.1128 10.44 16.0246 10.6267 15.9109C10.7676 15.7667 10.8614 15.5958 10.9078 15.3982C10.9298 14.1855 10.9298 12.9728 10.9078 11.7601C10.8738 11.6205 10.8022 11.5047 10.6928 11.4129C10.4749 11.3361 10.2544 11.2699 10.0313 11.2144C9.9199 11.1362 9.84823 11.0314 9.81635 10.9002C9.79429 10.5915 9.79429 10.2828 9.81635 9.97415C9.91114 9.77429 10.06 9.64199 10.2628 9.57727ZM10.3951 10.1726C10.3843 10.3504 10.3953 10.5267 10.4282 10.7018C10.9552 10.7528 11.3025 11.0284 11.47 11.5286C11.5076 12.2108 11.5242 12.8943 11.5196 13.5792C11.5141 14.2076 11.5086 14.836 11.5031 15.4644C11.4011 16.112 11.0317 16.5089 10.3951 16.655C10.3951 16.8424 10.3951 17.0298 10.3951 17.2173C11.696 17.2173 12.9969 17.2173 14.2978 17.2173C14.2978 17.0298 14.2978 16.8424 14.2978 16.655C13.6661 16.5069 13.2968 16.11 13.1899 15.4644C13.1733 13.7005 13.1678 11.9365 13.1733 10.1726C12.2473 10.1726 11.3212 10.1726 10.3951 10.1726Z" fill="#061C28"/>
</g>
</g>
<defs>
<clipPath id="clip0_46_328">
<rect width="24" height="24" fill="white" transform="translate(0.375)"/>
</clipPath>
</defs>
</svg>
