<svg width="25" height="24" viewBox="0 0 25 24" fill="none" xmlns="http://www.w3.org/2000/svg">
<g id="give-money 1" clip-path="url(#clip0_46_270)">
<g id="Group">
<path id="Vector" opacity="0.937" fill-rule="evenodd" clip-rule="evenodd" d="M16.2266 -0.0234375C16.6797 -0.0234375 17.1328 -0.0234375 17.5859 -0.0234375C17.8036 0.0927577 17.9676 0.264632 18.0781 0.492188C18.1016 0.882502 18.1093 1.27312 18.1016 1.66406C19.6796 1.90832 20.9061 2.68957 21.7812 4.00781C21.9341 4.44013 21.8169 4.77605 21.4297 5.01562C20.9378 5.25787 20.43 5.4532 19.9062 5.60156C19.7477 5.60077 19.5992 5.56172 19.4609 5.48438C19.1205 5.019 18.6752 4.6987 18.125 4.52344C18.1016 5.44519 18.0937 6.36708 18.1016 7.28906C19.1053 7.52541 20.0272 7.9395 20.8672 8.53125C22.2258 9.77452 22.4836 11.2198 21.6406 12.8672C20.7816 14.1075 19.6019 14.8419 18.1016 15.0703C18.1093 15.4613 18.1016 15.8519 18.0781 16.2422C17.9887 16.5347 17.7934 16.7144 17.4922 16.7812C16.0398 17.1021 15.4304 16.5318 15.6641 15.0703C15.2104 15.0037 14.7729 14.8787 14.3516 14.6953C14.1292 15.0191 13.8324 15.2457 13.4609 15.375C12.4153 15.5685 11.3684 15.756 10.3203 15.9375C10.2183 15.9451 10.1324 15.9842 10.0625 16.0547C9.97653 16.4532 9.89061 16.8517 9.80469 17.25C9.83286 17.3252 9.87973 17.3877 9.94531 17.4375C11.1605 17.8998 12.3792 18.353 13.6016 18.7969C13.6797 18.8281 13.7578 18.8281 13.8359 18.7969C16.6585 17.856 19.4866 16.9342 22.3203 16.0312C23.2128 15.9953 23.8065 16.3938 24.1016 17.2266C24.1016 17.5078 24.1016 17.7891 24.1016 18.0703C23.9501 18.4953 23.6845 18.8313 23.3047 19.0781C20.3984 20.6406 17.4922 22.2031 14.5859 23.7656C14.348 23.8444 14.1136 23.9147 13.8828 23.9766C13.4922 23.9766 13.1015 23.9766 12.7109 23.9766C8.78286 22.9867 4.84536 22.0102 0.898438 21.0469C0.494776 20.9011 0.229151 20.6277 0.101562 20.2266C0.101562 18.8516 0.101562 17.4765 0.101562 16.1016C0.254311 15.6442 0.566811 15.3552 1.03906 15.2344C1.54903 15.2438 2.04903 15.1813 2.53906 15.0469C3.6092 14.4573 4.65608 13.8322 5.67969 13.1719C6.23459 12.8691 6.82831 12.7128 7.46094 12.7031C8.92967 12.6094 10.3985 12.5156 11.8672 12.4219C11.9526 12.2608 12.0386 12.0967 12.125 11.9297C12.6778 11.5752 13.2715 11.3096 13.9062 11.1328C14.0474 11.1434 14.1802 11.1825 14.3047 11.25C14.6423 11.7045 15.0798 12.0248 15.6172 12.2109C15.6641 11.2896 15.6797 10.3677 15.6641 9.44531C14.3888 9.16331 13.2873 8.56959 12.3594 7.66406C11.624 6.63459 11.4833 5.5252 11.9375 4.33594C12.5148 3.14929 13.4289 2.3446 14.6797 1.92188C15.0027 1.8138 15.3308 1.72786 15.6641 1.66406C15.6464 1.25459 15.6699 0.848339 15.7344 0.445312C15.8331 0.213624 15.9972 0.0573745 16.2266 -0.0234375ZM16.5078 0.820312C16.7578 0.820312 17.0078 0.820312 17.2578 0.820312C17.25 1.24248 17.2578 1.66435 17.2812 2.08594C17.3023 2.18058 17.3414 2.26651 17.3984 2.34375C18.1847 2.48084 18.9347 2.73083 19.6484 3.09375C20.1899 3.39307 20.6118 3.80713 20.9141 4.33594C20.5925 4.43408 20.28 4.55908 19.9766 4.71094C19.3524 4.06678 18.5945 3.67615 17.7031 3.53906C17.5406 3.55779 17.4156 3.63592 17.3281 3.77344C17.275 4.45069 17.2516 5.13037 17.2578 5.8125C17.2656 6.4297 17.2734 7.04686 17.2812 7.66406C17.3033 7.74591 17.3346 7.82405 17.375 7.89844C17.9909 8.12461 18.6081 8.35116 19.2266 8.57812C19.9186 8.84859 20.489 9.2783 20.9375 9.86719C21.4508 10.8663 21.3727 11.8195 20.7031 12.7266C19.8415 13.6691 18.7712 14.2082 17.4922 14.3438C17.4375 14.3985 17.3828 14.4531 17.3281 14.5078C17.2625 14.9891 17.2391 15.4735 17.2578 15.9609C17.0078 15.9609 16.7578 15.9609 16.5078 15.9609C16.529 15.4561 16.5056 14.9561 16.4375 14.4609C16.3985 14.4219 16.3594 14.3828 16.3203 14.3438C15.7202 14.268 15.142 14.1117 14.5859 13.875C14.4584 13.0445 13.9896 12.5289 13.1797 12.3281C13.4041 12.2394 13.6228 12.1378 13.8359 12.0234C14.4374 12.6837 15.1874 13.0743 16.0859 13.1953C16.2161 13.181 16.3333 13.1341 16.4375 13.0547C16.5148 11.6993 16.5305 10.34 16.4844 8.97656C16.4453 8.87498 16.375 8.80467 16.2734 8.76562C15.2184 8.50819 14.2497 8.0707 13.3672 7.45312C12.4198 6.51647 12.2714 5.46178 12.9219 4.28906C13.5158 3.46142 14.3048 2.90673 15.2891 2.625C15.6318 2.54084 15.9755 2.46271 16.3203 2.39062C16.375 2.33594 16.4297 2.28125 16.4844 2.22656C16.5078 1.75807 16.5156 1.28932 16.5078 0.820312ZM12.6641 13.1953C13.2043 13.1292 13.548 13.3558 13.6953 13.875C13.6261 14.3348 13.3605 14.5848 12.8984 14.625C11.9286 14.7908 10.9598 14.9627 9.99219 15.1406C9.69481 15.2072 9.46827 15.3713 9.3125 15.6328C9.15041 16.1698 9.03322 16.7166 8.96094 17.2734C8.97584 17.6392 9.13208 17.9282 9.42969 18.1406C10.7542 18.6498 12.0823 19.1498 13.4141 19.6406C13.6172 19.6719 13.8203 19.6719 14.0234 19.6406C16.8501 18.7062 19.6782 17.7765 22.5078 16.8516C23.0847 16.9581 23.3269 17.3018 23.2344 17.8828C23.1562 18.0629 23.039 18.2114 22.8828 18.3281C20.0078 19.875 17.1328 21.4219 14.2578 22.9688C13.7201 23.1459 13.1732 23.1772 12.6172 23.0625C8.82172 22.119 5.02484 21.1815 1.22656 20.25C1.15247 20.2169 1.08216 20.1778 1.01562 20.1328C0.938333 18.8556 0.922709 17.5744 0.96875 16.2891C0.990556 16.222 1.02962 16.1673 1.08594 16.125C1.48894 16.069 1.89519 16.0221 2.30469 15.9844C2.5287 15.941 2.74745 15.8785 2.96094 15.7969C4.03108 15.2073 5.07795 14.5822 6.10156 13.9219C6.32473 13.8006 6.55911 13.7069 6.80469 13.6406C8.76308 13.4744 10.7162 13.326 12.6641 13.1953Z" fill="#061C28"/>
</g>
<g id="Group_2">
<path id="Vector_2" opacity="0.941" fill-rule="evenodd" clip-rule="evenodd" d="M15.8515 3.58581C16.1022 3.53713 16.3131 3.59963 16.4843 3.77331C16.5155 4.9608 16.5155 6.14833 16.4843 7.33581C16.3952 7.4718 16.2702 7.54994 16.1093 7.57019C15.3675 7.39844 14.6878 7.09375 14.0702 6.65613C13.5294 6.09798 13.4591 5.48078 13.8593 4.80456C14.3806 4.16499 15.0447 3.75874 15.8515 3.58581ZM15.5233 4.57019C15.1424 4.73997 14.822 4.98995 14.5624 5.32019C14.3958 5.56553 14.4192 5.79208 14.6327 5.99988C14.9515 6.21006 15.2875 6.38978 15.6405 6.53894C15.664 5.88288 15.6718 5.22663 15.664 4.57019C15.6171 4.57019 15.5702 4.57019 15.5233 4.57019Z" fill="#061C28"/>
</g>
<g id="Group_3">
<path id="Vector_3" opacity="0.936" fill-rule="evenodd" clip-rule="evenodd" d="M17.5391 9.21094C18.3028 9.32709 19.0059 9.60056 19.6484 10.0312C20.2742 10.5766 20.3758 11.2095 19.9531 11.9297C19.3798 12.6541 18.6298 13.076 17.7031 13.1953C17.4643 13.1779 17.3236 13.0529 17.2813 12.8203C17.25 11.7422 17.25 10.6641 17.2813 9.58594C17.3042 9.41503 17.3902 9.29002 17.5391 9.21094ZM18.1016 10.2422C18.086 10.8992 18.1016 11.5554 18.1484 12.2109C18.5589 12.0644 18.9105 11.83 19.2031 11.5078C19.3458 11.3167 19.377 11.1135 19.2969 10.8984C18.9563 10.5758 18.5579 10.357 18.1016 10.2422Z" fill="#061C28"/>
</g>
</g>
<defs>
<clipPath id="clip0_46_270">
<rect width="24" height="24" fill="white" transform="translate(0.125)"/>
</clipPath>
</defs>
</svg>
