<svg xmlns="http://www.w3.org/2000/svg" width="24" height="24" viewBox="0 0 24 24"><defs><style>.a{fill:none;}.b{fill:#2e2e2e;}</style></defs><rect class="a" width="24" height="24"/><g transform="translate(3 5.572)"><path class="b" d="M1.373,12.109a1.286,1.286,0,0,0,1.285,1.285H18.087a1.287,1.287,0,0,0,1.285-1.285V5.68h-18Zm16.714-1.286H15.515V9.537h2.572ZM10.372,6.965h7.714V8.251H10.372Zm-7.714,0H6.515V9.537H2.658Z" transform="translate(-1.372 -0.538)"/><path class="b" d="M2.658,1.179A1.287,1.287,0,0,0,1.372,2.464V3.751h18V2.464a1.289,1.289,0,0,0-1.286-1.285Z" transform="translate(-1.372 -1.179)"/></g></svg>