<svg xmlns="http://www.w3.org/2000/svg" width="24" height="24" viewBox="0 0 24 24"><defs><style>.a{fill:none;}.b{fill:#2e2e2e;}</style></defs><rect class="a" width="24" height="24"/><g transform="translate(2.83 2.822)"><path class="b" d="M17.822.526a1.773,1.773,0,0,0-2.507,0l-3.75,3.75L5.5,2.211a.376.376,0,0,0-.258.006L2.461,3.3a.377.377,0,0,0-.158.623l0,0a.378.378,0,0,0,.058.048l5.716,3.79L4.21,11.631l-2.425-.825a.2.2,0,0,0-.139,0l-1.5.582a.265.265,0,0,0-.088.057.2.2,0,0,0,0,.282h0a.191.191,0,0,0,.031.026l2.873,1.905a1.771,1.771,0,0,0,1.721,1.721L6.59,18.257a.2.2,0,0,0,.36-.039L7.539,16.7a.2.2,0,0,0,0-.14l-.825-2.425,3.87-3.87,3.791,5.716a.377.377,0,0,0,.665-.072l1.088-2.8a.377.377,0,0,0,.005-.258l-2.065-6.07,3.75-3.75A1.772,1.772,0,0,0,17.822.526Z" transform="translate(0)"/></g></svg>