<svg width="25" height="24" viewBox="0 0 25 24" fill="none" xmlns="http://www.w3.org/2000/svg">
<g id="savings (1) 1" clip-path="url(#clip0_46_259)">
<g id="Group">
<path id="Vector" opacity="0.935" fill-rule="evenodd" clip-rule="evenodd" d="M11.8829 -0.0234375C12.1954 -0.0234375 12.5079 -0.0234375 12.8204 -0.0234375C14.4798 0.529598 15.0658 1.6546 14.5782 3.35156C13.8899 4.61331 12.8508 5.043 11.461 4.64062C10.2848 4.07745 9.79262 3.14776 9.98443 1.85156C10.2391 0.839105 10.8719 0.214104 11.8829 -0.0234375ZM12.0235 0.820312C12.9527 0.733392 13.5699 1.12402 13.8751 1.99219C14.0225 2.92381 13.6554 3.55663 12.7735 3.89062C11.6212 4.0407 10.9494 3.54069 10.7579 2.39062C10.8482 1.59027 11.2701 1.06683 12.0235 0.820312Z" fill="#0A0C0F"/>
</g>
<g id="Group_2">
<path id="Vector_2" opacity="0.937" fill-rule="evenodd" clip-rule="evenodd" d="M24.3516 8.78909C24.3516 9.25784 24.3516 9.72659 24.3516 10.1953C24.1249 11.5081 23.4608 12.5394 22.3594 13.2891C22.5052 15.1382 22.1302 16.8725 21.2344 18.4922C20.6886 19.3427 19.9932 20.0458 19.1484 20.6016C19.0193 21.4743 18.9022 22.3493 18.7969 23.2266C18.671 23.5946 18.4288 23.8446 18.0703 23.9766C17.0547 23.9766 16.0391 23.9766 15.0234 23.9766C14.6649 23.8446 14.4227 23.5946 14.2969 23.2266C14.2458 22.9152 14.2067 22.6028 14.1797 22.2891C12.9609 22.4141 11.7422 22.4141 10.5234 22.2891C10.4943 22.6525 10.4397 23.0119 10.3594 23.3672C10.2112 23.6642 9.98456 23.8673 9.67969 23.9766C8.66405 23.9766 7.64845 23.9766 6.63281 23.9766C6.27431 23.8446 6.03211 23.5946 5.90625 23.2266C5.79689 22.3672 5.68748 21.5078 5.57812 20.6485C4.92023 20.2563 4.36555 19.7485 3.91406 19.125C2.95868 19.01 2.09931 18.6662 1.33594 18.0938C0.803151 17.5828 0.475026 16.9656 0.351562 16.2422C0.351562 15.4766 0.351562 14.711 0.351562 13.9453C0.479309 13.6065 0.713684 13.3644 1.05469 13.2188C1.48904 13.1538 1.92654 13.1304 2.36719 13.1485C2.45072 11.1921 3.16947 9.5203 4.52344 8.13284C4.19061 7.57648 3.8703 7.01398 3.5625 6.44534C3.46118 5.82739 3.70337 5.4133 4.28906 5.20316C5.75841 5.04706 7.13344 5.33614 8.41406 6.07034C11.1084 5.36291 13.7959 5.38634 16.4766 6.14066C18.477 6.73625 20.0474 7.9003 21.1875 9.63284C21.3088 9.8285 21.4182 10.0316 21.5156 10.2422C21.8749 9.80525 21.9998 9.30528 21.8906 8.74222C21.8018 8.23653 21.5986 7.78339 21.2812 7.38284C20.9844 7.14847 20.7188 6.88283 20.4844 6.58597C20.1438 5.70045 20.4172 5.09886 21.3047 4.78128C21.6835 4.71195 22.0272 4.79009 22.3359 5.01566C23.4486 6.04128 24.1205 7.29908 24.3516 8.78909ZM21.4453 5.60159C21.562 5.59212 21.6714 5.61556 21.7734 5.67191C23.3324 7.13005 23.8245 8.88786 23.25 10.9453C23.0273 11.461 22.707 11.9063 22.2891 12.2813C22.027 12.4709 21.7692 12.6662 21.5156 12.8672C21.602 14.0882 21.4926 15.2913 21.1875 16.4766C20.7172 18.0046 19.8031 19.1843 18.4453 20.0157C18.389 20.058 18.3499 20.1126 18.3281 20.1797C18.2017 21.0834 18.0923 21.9897 18 22.8985C17.9872 22.9842 17.9481 23.0545 17.8828 23.1094C16.9922 23.1407 16.1016 23.1407 15.2109 23.1094C15.1372 23.0238 15.0981 22.9222 15.0938 22.8047C15.0571 22.4284 15.0103 22.0534 14.9531 21.6797C14.8709 21.4802 14.7225 21.3865 14.5078 21.3985C13.7927 21.5018 13.074 21.5487 12.3516 21.5391C11.5521 21.5267 10.7552 21.4877 9.96094 21.4219C9.85659 21.4794 9.78628 21.5654 9.75 21.6797C9.69286 22.0534 9.64598 22.4284 9.60938 22.8047C9.60502 22.9222 9.56597 23.0238 9.49219 23.1094C8.60156 23.1407 7.71094 23.1407 6.82031 23.1094C6.75502 23.0545 6.71592 22.9842 6.70312 22.8985C6.60938 22.0547 6.51562 21.211 6.42188 20.3672C6.405 20.2684 6.37373 20.1747 6.32812 20.086C5.53242 19.6654 4.88399 19.0795 4.38281 18.3282C3.71937 18.2392 3.07875 18.0674 2.46094 17.8125C1.75946 17.4543 1.3454 16.8839 1.21875 16.1016C1.1875 15.4453 1.1875 14.7891 1.21875 14.1328C1.26105 14.0765 1.31574 14.0375 1.38281 14.0157C1.89844 14 2.41406 13.9844 2.92969 13.9688C2.99676 13.947 3.05145 13.9079 3.09375 13.8516C3.19817 13.1004 3.32317 12.3504 3.46875 11.6016C3.80962 10.3253 4.48149 9.26281 5.48438 8.41409C5.51564 8.30473 5.51564 8.19533 5.48438 8.08597C5.1368 7.46886 4.77744 6.85948 4.40625 6.25784C4.37291 6.17033 4.39635 6.10002 4.47656 6.04691C5.79923 5.91664 7.01798 6.2135 8.13281 6.93753C8.1953 6.94536 8.25783 6.95314 8.32031 6.96097C10.8768 6.24153 13.4392 6.21809 16.0078 6.89066C18.388 7.56041 20.0755 9.02136 21.0703 11.2735C21.338 11.4712 21.588 11.4478 21.8203 11.2032C22.7504 10.3031 23.0082 9.23281 22.5938 7.99222C22.3196 7.24939 21.8665 6.64002 21.2344 6.16409C21.142 5.91795 21.2123 5.73045 21.4453 5.60159ZM6.02344 11.6016C6.42525 11.5817 6.65963 11.7692 6.72656 12.1641C6.69919 12.5274 6.50391 12.7305 6.14062 12.7735C5.5972 12.6092 5.45658 12.281 5.71875 11.7891C5.81695 11.7129 5.91848 11.6504 6.02344 11.6016Z" fill="#0A0C0F"/>
</g>
<g id="Group_3">
<path id="Vector_3" opacity="0.932" fill-rule="evenodd" clip-rule="evenodd" d="M11.7423 7.1485C12.7069 7.11821 13.66 7.20414 14.6016 7.40631C14.8557 7.6719 14.8401 7.92189 14.5548 8.15631C14.4766 8.16414 14.3985 8.17192 14.3204 8.17975C13.6681 8.07592 13.0119 8.01343 12.3516 7.99225C11.6148 8.03561 10.8804 8.09031 10.1485 8.15631C9.86318 7.92189 9.84757 7.6719 10.1016 7.40631C10.6495 7.28528 11.1964 7.19936 11.7423 7.1485Z" fill="#0A0C0F"/>
</g>
</g>
<defs>
<clipPath id="clip0_46_259">
<rect width="24" height="24" fill="white" transform="translate(0.375)"/>
</clipPath>
</defs>
</svg>
