<svg xmlns="http://www.w3.org/2000/svg" width="24" height="24" viewBox="0 0 24 24"><defs><style>.a{fill:none;}.b{fill:#2e2e2e;}</style></defs><rect class="a" width="24" height="24"/><g transform="translate(3.714 3)"><path class="b" d="M.984,0H12.643a1.509,1.509,0,0,1,1.3,1.659c.067,2.269.045,4.539.011,6.807a.79.79,0,0,1-.8.862,7.713,7.713,0,0,0-2.185.478,4.887,4.887,0,0,0-3.023,4.516c-.037.607.009,1.217-.038,1.823-.033.434-.23.719-.686.732-1.894.057-3.787.081-5.681-.016A1.5,1.5,0,0,1,0,15.309V1.124A1.119,1.119,0,0,1,.984,0ZM10.7,6.756c.526.016.586-.233.535-.628-.044-.337.22-.814-.5-.807q-3.928.04-7.855,0c-.708-.007-.464.465-.5.808-.047.4.013.645.537.628,1.285-.04,2.572-.013,3.857-.013,1.309,0,2.619-.027,3.927.013ZM9.127,3.677c.644.033.578-.335.581-.742,0-.386.058-.71-.543-.7q-3.122.055-6.244,0c-.6-.01-.55.309-.546.7,0,.4-.067.778.578.744,1-.054,2.011-.014,3.016-.014,1.052,0,2.107-.04,3.156.014ZM2.861,8.28c-.668-.045-.455.424-.474.75s-.112.7.483.675c1.072-.045,2.148-.052,3.219,0,.6.031.664-.223.669-.723.006-.519-.094-.77-.681-.709a14.642,14.642,0,0,1-1.538.011c-.56,0-1.122.03-1.68-.007Zm1.945,4.366c.152,0,.309.028.388-.194.268-.743-.048-1.212-.841-1.212-.513,0-1.028.016-1.54-.006-.336-.014-.43.113-.442.442-.04.974-.055.973.895.974h.491c.35,0,.7.006,1.051,0Z" transform="translate(0)"/><path class="b" d="M12.8,10.5a3.684,3.684,0,0,1,3.773,3.711A3.788,3.788,0,1,1,9,14.113a3.68,3.68,0,0,1,3.8-3.61Zm1.694,4.249c.352.023.549-.03.554-.474.007-.465-.179-.529-.577-.529-1.095,0-1.095-.017-1.126-1.137a.568.568,0,0,1,0-.069c.055-.373-.121-.455-.474-.481-.523-.037-.733.126-.655.656a4.788,4.788,0,0,1,.006.7,1.19,1.19,0,0,0,1.361,1.331c.3,0,.608-.016.91,0Z" transform="translate(0 0)"/></g></svg>