<svg xmlns="http://www.w3.org/2000/svg" width="24" height="24" viewBox="0 0 24 24"><defs><style>.a{fill:none;}.b{fill:#2e2e2e;}</style></defs><rect class="a" width="24" height="24"/><g transform="translate(3 3.175)"><path class="b" d="M0,16.4V4.881A1.3,1.3,0,0,1,.588,3.875a1.728,1.728,0,0,1,.937-.308c.175-.006.351,0,.527,0q7.119,0,14.237,0a1.825,1.825,0,0,1,1.166.36A1.288,1.288,0,0,1,18,4.975c0,.913,0,1.826,0,2.738,0,.134-.051.194-.182.2-.1,0-.2,0-.3,0H11.9a1.552,1.552,0,0,0-.959.282,1.457,1.457,0,0,0-.593,1.2,11.421,11.421,0,0,0,.024,1.613,1.405,1.405,0,0,0,1.256,1.266,4.807,4.807,0,0,0,.595.033q2.695,0,5.389,0c.384,0,.384,0,.384.385,0,1.182,0,2.364,0,3.546a1.375,1.375,0,0,1-.767,1.261,1.5,1.5,0,0,1-.783.141q-7.461.007-14.922.006a1.515,1.515,0,0,1-1.335-.64A1.764,1.764,0,0,1,0,16.4Z" transform="translate(0.001)"/><path class="b" d="M14.96,0q.3.874.609,1.749c.086.245.177.488.265.732.03.082.037.149-.087.134a.874.874,0,0,0-.105,0H7.749c0-.013,0-.026-.008-.039.261-.1.522-.2.784-.288L14.775.066c.04-.014.093-.015.114-.065h.07Z" transform="translate(0.001)"/><path class="b" d="M14.791,8.878c1.006,0,2.012,0,3.018,0,.139,0,.175.038.174.175q-.011,1.07,0,2.14c0,.124-.034.155-.157.155q-3.009-.006-6.018,0a.484.484,0,0,1-.5-.491q0-.746,0-1.491a.448.448,0,0,1,.465-.477c1.006,0,2.012,0,3.018,0v0Zm-1.552,1.234a.693.693,0,0,0-.69-.7.681.681,0,0,0-.68.685.648.648,0,0,0,.681.688A.677.677,0,0,0,13.239,10.111Z" transform="translate(0.001)"/></g></svg>