<svg xmlns="http://www.w3.org/2000/svg" width="24" height="24" viewBox="0 0 24 24"><defs><style>.a{fill:none;}.b{fill:#2e2e2e;}</style></defs><rect class="a" width="24" height="24"/><g transform="translate(2 2.003)"><path class="b" d="M9.2,0h1.638c.3.034.6.037.907.064a6.865,6.865,0,0,1,1.776.453,9.666,9.666,0,0,1,3.111,1.861,10.014,10.014,0,0,1,3.206,5.387,7.627,7.627,0,0,1,.141,1.442,16.722,16.722,0,0,1-.055,2.42,8.392,8.392,0,0,1-.747,2.487,9.791,9.791,0,0,1-1.618,2.515,10.286,10.286,0,0,1-4.221,2.883,8.43,8.43,0,0,1-2.919.481,17.622,17.622,0,0,1-2.132-.073,8.459,8.459,0,0,1-2.51-.757,5.568,5.568,0,0,1-.917-.472.541.541,0,0,0-.568-.039c-.981.4-1.966.789-2.949,1.184a2.046,2.046,0,0,1-.787.156c-.39,0-.447-.043-.56-.41v-.39a12.424,12.424,0,0,1,.759-2.117c.176-.474.367-.944.565-1.409a.556.556,0,0,0-.036-.55A9.762,9.762,0,0,1,.119,12.1a8.267,8.267,0,0,1-.1-1.164c0-.07.021-.142-.019-.209V9.166c.033-.312.031-.627.061-.938A7.1,7.1,0,0,1,.518,6.478,9.693,9.693,0,0,1,2.38,3.369,10.146,10.146,0,0,1,7.889.116,7.012,7.012,0,0,1,9,.019c.07,0,.142.021.209-.019Zm2.573,7.739a.625.625,0,0,0-.662-.714q-1.676-.013-3.352,0a.608.608,0,0,0-.662.653c-.012.734-.014,1.469,0,2.2a.576.576,0,0,0,.529.633,2.13,2.13,0,0,0,.465.016c.136,0,.176.035.174.173-.007.591,0,1.182,0,1.774a.42.42,0,0,1-.468.475.631.631,0,0,0-.7.7q-.006,1.062,0,2.125a.629.629,0,0,0,.7.691h4.444a.616.616,0,0,0,.7-.652c.014-.734.011-1.468,0-2.2a.591.591,0,0,0-.526-.636,1.543,1.543,0,0,0-.464-.016c-.152.008-.181-.047-.18-.187.006-.838,0-1.676,0-2.515s0-1.676,0-2.515ZM8.288,4.111a1.735,1.735,0,1,0,3.469-.029,1.735,1.735,0,1,0-3.469.029Z" transform="translate(0)"/><path class="b" d="M10.608,10.9c0,.825,0,1.65,0,2.475a1,1,0,0,0,.065.379.585.585,0,0,0,.563.37c.174.007.4-.074.507.031s.029.345.036.524c.006.156-.007.312,0,.468.009.126-.042.15-.156.149q-1.6-.006-3.2,0c-.127,0-.168-.034-.163-.162.009-.279.01-.559,0-.838,0-.133.029-.19.17-.175a2.855,2.855,0,0,0,.312,0,.618.618,0,0,0,.688-.664q.013-1.715,0-3.43a.619.619,0,0,0-.653-.664c-.026,0-.052,0-.078,0a.384.384,0,0,1-.436-.43c0-.2,0-.4,0-.6,0-.1.019-.139.127-.138.695,0,1.39.006,2.085,0,.151,0,.129.085.129.175V10.9Z" transform="translate(0 0)"/><path class="b" d="M9.438,4.1a.585.585,0,1,1,1.17-.007.585.585,0,1,1-1.17.006Z" transform="translate(0 0)"/></g></svg>