<svg xmlns="http://www.w3.org/2000/svg" width="24" height="24" viewBox="0 0 24 24"><defs><style>.a{fill:none;}.b{fill:#2e2e2e;}</style></defs><rect class="a" width="24" height="24"/><g transform="translate(3.006 3)"><g transform="translate(0 0)"><path class="b" d="M0,8.256c.037-.236.076-.471.112-.707a8.946,8.946,0,0,1,2.9-5.282,9.021,9.021,0,0,1,11.089-.683.625.625,0,0,1,.277.7.571.571,0,0,1-.515.442.643.643,0,0,1-.481-.14,7.632,7.632,0,0,0-2.217-1.049,8.1,8.1,0,0,0-1.727-.293A7.764,7.764,0,0,0,3.094,3.937,7.746,7.746,0,0,0,1.4,7.3a7.856,7.856,0,0,0-.17,1.265,7.621,7.621,0,0,0,.643,3.574,6.547,6.547,0,0,0,.743,1.308,3.9,3.9,0,0,1,.305-.773,4.207,4.207,0,0,1,1.648-1.58,8.362,8.362,0,0,1,2.837-.967A8.976,8.976,0,0,1,8.887,10a8.61,8.61,0,0,1,4.9,1.33,3.613,3.613,0,0,1,1.522,1.915c.018.056-.005.13.073.175a1,1,0,0,0,.2-.273,7.864,7.864,0,0,0,1.095-2.849,10.7,10.7,0,0,0,.115-1.316.579.579,0,0,1,.6-.572.563.563,0,0,1,.6.568,8.712,8.712,0,0,1-1.952,5.635,8.84,8.84,0,0,1-4.9,3.147,6.076,6.076,0,0,1-1.276.206c-.031,0-.063,0-.077.037H8.207c-.295-.042-.593-.035-.887-.092A9.04,9.04,0,0,1,.053,10.422C.02,10.213.039,10,0,9.793Z" transform="translate(0 0)"/><path class="b" d="M16.41,6.307c-.149.017-.38-.078-.492.036s-.023.332-.029.506c0,.1,0,.2,0,.3a.617.617,0,1,1-1.232.017c-.012-.23-.009-.462,0-.693.005-.127-.026-.176-.162-.169-.249.011-.5,0-.749,0a.6.6,0,0,1-.006-1.2c.25,0,.5-.007.749,0,.128,0,.169-.028.17-.163a3.939,3.939,0,0,1,.029-.875A.6.6,0,0,1,15.4,3.61a.614.614,0,0,1,.486.6c0,.256,0,.512,0,.768,0,.106.03.14.136.137.268-.007.537,0,.805,0a.583.583,0,0,1,.559.6.589.589,0,0,1-.555.6c-.131,0-.262,0-.423,0Z" transform="translate(0 0)"/><path class="b" d="M5.846,5.876a3.151,3.151,0,1,1,6.3.168,3.151,3.151,0,0,1-6.3-.168ZM9,3.956A1.881,1.881,0,0,0,7.061,5.884a1.924,1.924,0,1,0,3.847,0A1.88,1.88,0,0,0,9,3.956Z" transform="translate(0 0)"/></g></g></svg>