<svg xmlns="http://www.w3.org/2000/svg" width="24" height="24" viewBox="0 0 24 24"><defs><style>.a{fill:none;}.b{fill:#2e2e2e;}</style></defs><rect class="a" width="24" height="24"/><g transform="translate(2.737 3.411)"><path class="b" d="M8.807,0h.94a3.971,3.971,0,0,0,.444.043A3.384,3.384,0,0,1,12,.888,4.142,4.142,0,0,1,13.3,2.758a4.325,4.325,0,0,1-.373,3.613,4.487,4.487,0,0,1-.754.917c-.22.213-.217.239-.061.51q.279.485.561.969c.111.19.146.206.349.142a4.31,4.31,0,0,1,1.17-.21,4.305,4.305,0,0,1,4.169,2.795,3.514,3.514,0,0,1,.147.867c.005.047-.015.1.018.139v.975a2.444,2.444,0,0,0-.045.407,3.407,3.407,0,0,1-.865,1.825,4.145,4.145,0,0,1-2.1,1.367,3.029,3.029,0,0,1-.633.081,7.482,7.482,0,0,1-1.5-.04,2.756,2.756,0,0,1-.868-.3,4.274,4.274,0,0,1-2.308-2.854c-.094-.364-.091-.365-.47-.365-.355,0-.711,0-1.066,0-.208,0-.25.033-.3.239a4.292,4.292,0,0,1-.853,1.794A4.242,4.242,0,0,1,5.277,17.1a2.823,2.823,0,0,1-.552.06,8.214,8.214,0,0,1-1.315-.02A3.381,3.381,0,0,1,1.8,16.494a4.355,4.355,0,0,1-1.6-2.04,3.327,3.327,0,0,1-.181-1.048,7.525,7.525,0,0,1,.04-1.361A3.4,3.4,0,0,1,.7,10.538,4.261,4.261,0,0,1,5.479,8.894c.268.08.281.076.419-.16.195-.332.387-.666.58-1,.106-.183.1-.249-.051-.4a4.73,4.73,0,0,1-.85-1.047,4.266,4.266,0,0,1-.549-1.832,4.1,4.1,0,0,1,.614-2.514A4.214,4.214,0,0,1,7.957.114a3.075,3.075,0,0,1,.729-.1c.041,0,.084.013.121-.018Zm1.218,12.428c.161.011.2-.06.227-.194A4.063,4.063,0,0,1,11.7,9.747c.092-.078.089-.124.035-.214-.268-.453-.532-.908-.79-1.367-.059-.105-.11-.123-.225-.08A4.127,4.127,0,0,1,9.4,8.347,4.169,4.169,0,0,1,7.814,8.08c-.1-.037-.149-.024-.2.067-.269.474-.539.946-.817,1.415-.05.084-.03.116.037.171a4.184,4.184,0,0,1,1.037,1.254A3.787,3.787,0,0,1,8.3,12.249c.018.129.074.189.222.179.246-.017.493,0,.74,0s.507-.013.758,0Zm-7.377,1.64c.112-.066.1-.114.042-.207a1.475,1.475,0,0,1-.238-.686,1.723,1.723,0,0,1,.693-1.606,1.73,1.73,0,0,1,2.534.46,1.682,1.682,0,0,1,.009,1.865c-.051.085-.036.118.039.163a2.663,2.663,0,0,1,.807.708c.07.093.1.081.163-.008a3.016,3.016,0,0,0,.481-2.543,3.074,3.074,0,0,0-5.99,1.38,2.887,2.887,0,0,0,.6,1.268,2.851,2.851,0,0,1,.863-.794ZM6.766,5.941c.068.1.106.129.188.017a2.535,2.535,0,0,1,.793-.7c.094-.055.08-.1.028-.185a1.606,1.606,0,0,1-.257-1.008,1.765,1.765,0,0,1,3.025-1.115,1.722,1.722,0,0,1,.23,2.132c-.045.079-.056.123.029.172a2.658,2.658,0,0,1,.807.708c.062.083.1.093.166,0A3,3,0,0,0,12.3,3.611a3.075,3.075,0,1,0-5.536,2.33Zm6.668,4.1a3.074,3.074,0,0,0-2.141,2.791,3.113,3.113,0,0,0,.562,1.924c.071.1.1.1.174,0a2.632,2.632,0,0,1,.794-.7c.089-.051.093-.091.038-.177a1.581,1.581,0,0,1-.258-.791,1.757,1.757,0,0,1,3.055-1.3,1.693,1.693,0,0,1,.192,2.092c-.045.08-.046.121.037.17a2.577,2.577,0,0,1,.792.7c.077.106.121.089.189-.013A3.074,3.074,0,0,0,14.349,9.9a2.728,2.728,0,0,0-.915.138Z" transform="translate(-0.001)"/></g></svg>