<svg xmlns="http://www.w3.org/2000/svg" width="24" height="24" viewBox="0 0 24 24"><defs><style>.a{fill:none;}.b{fill:#2e2e2e;}</style></defs><rect class="a" width="24" height="24"/><g transform="translate(4.619 3)"><g transform="translate(0 0)"><path class="b" d="M14.727,4.9q0-.229,0-.458c.012-.023.023-.023.034,0V4.9q-.016.036-.034,0Z" transform="translate(0 0)"/><path class="b" d="M14.761,4.446h-.034a.537.537,0,0,1,.034-.28Z" transform="translate(0 0)"/><path class="b" d="M14.727,4.9h.034v.211a.34.34,0,0,1-.034-.209Z" transform="translate(0 0)"/><path class="b" d="M7.532,18H7.251a3.372,3.372,0,0,1-1.068-.54,11.888,11.888,0,0,1-2.211-1.8,12.965,12.965,0,0,1-1.983-2.688A16.647,16.647,0,0,1,.12,7.2a12.32,12.32,0,0,1-.1-1.417c-.014-.5-.03-.993-.022-1.49,0-.2.026-.4.021-.6a.332.332,0,0,1,.2-.323c.7-.357,1.416-.7,2.127-1.038.491-.234.976-.478,1.465-.715C4.542,1.269,5.27.922,5.99.558,6.3.4,6.612.259,6.923.111a1.053,1.053,0,0,1,.943,0c.86.41,1.715.83,2.571,1.248,1,.491,2.009.975,3.011,1.467.336.165.668.337,1.01.488a.438.438,0,0,1,.288.468.363.363,0,0,0,.016.206v.176a1.041,1.041,0,0,0-.018.294v.422a.663.663,0,0,0,.018.232v.211a3.97,3.97,0,0,0-.03.678,15.382,15.382,0,0,1-1.25,5.552,13.169,13.169,0,0,1-1.987,3.332,12.3,12.3,0,0,1-3,2.64A3.06,3.06,0,0,1,7.532,18ZM3.254,8.387A4.139,4.139,0,1,0,7.408,4.375,4.115,4.115,0,0,0,3.254,8.387Z" transform="translate(0 0)"/><path class="b" d="M6.675,8.984,8.45,7.2c.128-.128.254-.258.385-.384A.639.639,0,0,1,9.768,6.8a.629.629,0,0,1-.038.932q-.969.978-1.946,1.948c-.2.2-.4.407-.608.607a.634.634,0,0,1-.994,0c-.377-.376-.751-.753-1.129-1.128a.609.609,0,0,1-.181-.68.638.638,0,0,1,1.064-.233l.738.743Z" transform="translate(0 0)"/></g></g></svg>