<svg xmlns="http://www.w3.org/2000/svg" xmlns:xlink="http://www.w3.org/1999/xlink" width="24" height="24" viewBox="0 0 24 24"><defs><style>.a{fill:#2e2e2e;}.b{fill:none;}.c{clip-path:url(#a);}</style><clipPath id="a"><rect class="a" width="17.208" height="16.914"/></clipPath></defs><rect class="b" width="24" height="24"/><g transform="translate(3.396 3.543)"><path class="a" d="M9.743,3.636V13.675h.569v0h0v0h0v-.013h0V13.63h0V3.636Z" transform="translate(-1.394 -0.448)"/><g transform="translate(0 0)"><g class="c" transform="translate(0 0)"><path class="a" d="M9.557,13.844A1.729,1.729,0,0,1,8.439,13.4a3.594,3.594,0,0,1-.852-1.144,8.339,8.339,0,0,1-.756-3.643c.005-2.12.627-3.945,1.608-4.787a1.625,1.625,0,0,1,2.236,0,3.584,3.584,0,0,1,.852,1.144,8.347,8.347,0,0,1,.757,3.642c-.006,2.121-.628,3.945-1.609,4.787a1.727,1.727,0,0,1-1.117.446ZM8.725,4.162a3.145,3.145,0,0,0-.742,1,7.908,7.908,0,0,0-.711,3.445c-.006,2.031.634,3.77,1.452,4.45a1.185,1.185,0,0,0,1.665,0,3.169,3.169,0,0,0,.743-1,7.922,7.922,0,0,0,.71-3.446c.006-2.031-.633-3.77-1.452-4.449a1.185,1.185,0,0,0-1.665,0" transform="translate(-0.953 -0.472)"/><path class="a" d="M3.918,8.612a5.233,5.233,0,1,1,5.233,5.233A5.232,5.232,0,0,1,3.918,8.612M5.764,5.225a4.79,4.79,0,1,0,3.387-1.4,4.771,4.771,0,0,0-3.387,1.4" transform="translate(-0.547 -0.472)"/><path class="a" d="M9.187,9.645H4.175V9.2H14.2v.441Zm5.012-.22v0Zm0-.221v0Z" transform="translate(-0.583 -1.285)"/><path class="a" d="M13,6.28q.21-.106.4-.224-.121-.185-.259-.358a7.455,7.455,0,0,1-3.78.9,7.917,7.917,0,0,1-3.447-.71c-.1-.052-.2-.106-.293-.162a4.41,4.41,0,0,0-.256.361,7.889,7.889,0,0,0,4,.953A8.347,8.347,0,0,0,13,6.28" transform="translate(-0.749 -0.796)"/><path class="a" d="M9.366,11.65a7.876,7.876,0,0,0-4,.958,4.4,4.4,0,0,0,.256.361c.095-.058.2-.114.3-.166a7.914,7.914,0,0,1,3.444-.711,7.456,7.456,0,0,1,3.789.9q.137-.173.257-.359a4.507,4.507,0,0,0-.4-.228,8.344,8.344,0,0,0-3.642-.757" transform="translate(-0.749 -1.627)"/><path class="a" d="M17.113,10.553a4.63,4.63,0,0,0-.4-.909,8.44,8.44,0,0,0,.1-1.3A8.282,8.282,0,0,0,8.6,0,8.282,8.282,0,0,0,.374,8.342,8.4,8.4,0,0,0,.485,9.682a4.718,4.718,0,0,0-.39.895,8.788,8.788,0,0,0,.167,3.385,3.931,3.931,0,0,0,2.369,1.215.453.453,0,0,0,.382.15.446.446,0,0,0,.41-.478l-.412-4.534a.447.447,0,0,0-.491-.395.456.456,0,0,0-.287.137c-.037,0-.076-.009-.12-.012a1.151,1.151,0,0,1-.765-.584,7.492,7.492,0,0,1-.085-1.119c0-4.109,3.282-6.933,7.333-6.933s7.333,2.825,7.333,6.933a7.286,7.286,0,0,1-.088,1.129,1.147,1.147,0,0,1-.748.551c-.043,0-.082.008-.12.013a.453.453,0,0,0-.287-.138.446.446,0,0,0-.49.395l-.412,4.534a.445.445,0,0,0,.41.477.456.456,0,0,0,.382-.149,3.939,3.939,0,0,0,2.369-1.216,8.822,8.822,0,0,0,.167-3.385" transform="translate(0 -0.001)"/><path class="a" d="M18.081,14.178c-.491-.382-.654,0-.654,0a8.735,8.735,0,0,1-5.07,3.534,1.612,1.612,0,0,0-1.178-.424c-.738,0-1.337.354-1.337.792s.6.791,1.337.791,1.33-.351,1.335-.786a10.067,10.067,0,0,0,5.566-3.906" transform="translate(-1.374 -1.956)"/></g></g></g></svg>