<svg xmlns="http://www.w3.org/2000/svg" width="24" height="24" viewBox="0 0 24 24"><defs><style>.a{fill:none;}.b{fill:#2e2e2e;}</style></defs><rect class="a" width="24" height="24"/><g transform="translate(3.938 1)"><path class="b" d="M3.491,22a.547.547,0,0,1-.264-.536c.019-.416.009-.833,0-1.249,0-.121.032-.16.156-.158q1.065.008,2.131,0c.127,0,.177.03.174.167-.008.424,0,.847,0,1.271A.623.623,0,0,1,5.43,22H5.086c-.118-.046-.241-.08-.358-.132a.6.6,0,0,0-.575.015A1.9,1.9,0,0,1,3.793,22h-.3Z" transform="translate(0 0)"/><path class="b" d="M.043,18.067,0,18.075V1.08l.042,0c.094.1.069.23.07.349q0,1.907,0,3.814,0,6.2,0,12.41a.65.65,0,0,1-.07.417Z" transform="translate(0)"/><path class="b" d="M16.075,17.341V.641c0-.1,0-.2,0-.3.072.064.039.148.039.223q0,8.278,0,16.556c0,.075.032.16-.042.223Z" transform="translate(0)"/><path class="b" d="M16.079,20.543q0-.87,0-1.739c.013.024.038.048.038.071q0,.8,0,1.595c0,.024-.024.048-.036.073Z" transform="translate(0 0)"/><path class="b" d="M6.465,20.067q0,.409,0,.818A1.651,1.651,0,0,1,6.465,20.067Z" transform="translate(0 0)"/><path class="b" d="M6.465,20.067l1.528-.008a.409.409,0,0,0,.453-.38.428.428,0,0,0-.445-.4q-3.155,0-6.31,0a.428.428,0,0,0-.441.4.409.409,0,0,0,.439.374c.208,0,.416,0,.624,0,.092,0,.149.01.144.125-.008.2,0,.4,0,.6,0,.072-.011.131-.1.128A5.71,5.71,0,0,1,.9,20.837a1.123,1.123,0,0,1-.866-.995c0-.016-.026-.029-.039-.042v-.216a1.868,1.868,0,0,1,.257-.64,1.15,1.15,0,0,1,.931-.479q7.221,0,14.442,0c.3,0,.4.078.447.342a16.313,16.313,0,0,1,0,1.739.342.342,0,0,1-.318.339,1.579,1.579,0,0,1-.318.032q-4.366,0-8.731,0c-.083,0-.172.031-.249-.029a3.359,3.359,0,0,1,0-.818Zm4.368-.009a.4.4,0,0,0,.415-.367.392.392,0,0,0-.383-.406,7.031,7.031,0,0,0-.793,0,.386.386,0,1,0,.032.772c.121,0,.243,0,.364,0s.243,0,.364,0Z" transform="translate(0 0)"/><path class="b" d="M.043,18.067q0-8.495,0-16.989A1.161,1.161,0,0,1,1.131,0Q8.392.005,15.654,0c.281,0,.374.074.425.337A.536.536,0,0,1,16.1.573q0,8.268,0,16.535a.47.47,0,0,1-.02.233.38.38,0,0,1-.365.345c-.057,0-.115,0-.172,0q-6.88,0-13.76,0a2.928,2.928,0,0,0-1.735.386ZM10.8,14.84a.4.4,0,0,0,.45-.442c0-.288,0-.575,0-.863,0-.819-.223-1.048-1.041-1.067h-.022c-.112.017-.147-.03-.146-.144,0-.726,0-1.452,0-2.177,0-.1.025-.135.131-.14a2.3,2.3,0,0,0,1.921-1.128.37.37,0,0,1,.229-.167,2.023,2.023,0,0,0,1.044-.68A5.5,5.5,0,0,0,14.431,4.75a.731.731,0,0,0-.687-.693c-.273-.007-.546-.007-.818-.007a.414.414,0,0,1-.472-.449.764.764,0,0,0-.767-.752H6.022a.735.735,0,0,0-.725.576,1.483,1.483,0,0,0-.037.466c.005.122-.036.162-.159.16-.366,0-.732,0-1.1,0a.688.688,0,0,0-.6.354,1.029,1.029,0,0,0-.094.716A6.631,6.631,0,0,0,3.836,7.2a2.512,2.512,0,0,0,1.5,1.488.641.641,0,0,1,.354.275A2.261,2.261,0,0,0,7.521,10c.128.008.153.048.152.163,0,.647,0,1.294,0,1.94a.318.318,0,0,1-.36.359.812.812,0,0,0-.847.848q0,.518,0,1.035c0,.342.151.489.5.489H10.8ZM.862,10.146v6.274c0,.248.107.383.315.406.233.026.358-.07.435-.308a.858.858,0,0,0,.025-.276q0-7.405,0-14.811a.787.787,0,0,0,0-.172c-.03-.13-.042-.274-.17-.353A.339.339,0,0,0,1.086.862a.423.423,0,0,0-.227.4q.005,3.783,0,7.567v1.315Z" transform="translate(0)"/><path class="b" d="M11.672,3.625c0,1.4.036,2.8-.005,4.2a1.548,1.548,0,0,1-1.4,1.407c-.816.076-1.633.035-2.449.033a1.651,1.651,0,0,1-1.768-1.4.545.545,0,0,1-.013-.106q0-2.069.008-4.139A.28.28,0,0,1,6.21,3.6H11.5a.283.283,0,0,1,.168.02Z" transform="translate(0 0)"/><path class="b" d="M8.834,14.064c-.473,0-.947-.006-1.42,0-.145,0-.185-.044-.176-.182.011-.172.006-.345,0-.517,0-.092.027-.126.122-.125q1.5,0,2.991,0c.1,0,.131.036.12.126a.18.18,0,0,0,0,.022c0,.214.072.492-.034.626s-.4.04-.614.045c-.33.008-.66,0-.99,0Z" transform="translate(0 0)"/><path class="b" d="M13.655,4.833A4.14,4.14,0,0,1,12.525,7.8l-.063-.017V4.833a6.907,6.907,0,0,1,1.192,0Z" transform="translate(0 0)"/><path class="b" d="M5.251,4.833V7.847A4.215,4.215,0,0,1,4.058,4.833,6.907,6.907,0,0,1,5.251,4.833Z" transform="translate(0 0)"/><path class="b" d="M9.259,10.052c0,.76,0,1.52.009,2.279,0,.1-.025.15-.131.136a.353.353,0,0,0-.043,0c-.206-.005-.475.067-.6-.036s-.04-.39-.041-.594c0-.595,0-1.19,0-1.785a3.192,3.192,0,0,1,.8,0Z" transform="translate(0 0)"/><path class="b" d="M5.251,4.833H4.058c.048-.084.127-.04.19-.041q.416-.008.833,0c.056,0,.13-.041.169.041Z" transform="translate(0 0)"/><path class="b" d="M13.655,4.833H12.462c.039-.081.114-.044.169-.04A4.557,4.557,0,0,1,13.655,4.833Z" transform="translate(0 0)"/><path class="b" d="M9.259,10.052h-.8A1.567,1.567,0,0,1,9.259,10.052Z" transform="translate(0 0)"/></g><g transform="translate(3.938 1)"><path class="b" d="M3.491,22a.547.547,0,0,1-.264-.536c.019-.416.009-.833,0-1.249,0-.121.032-.16.156-.158q1.065.008,2.131,0c.127,0,.177.03.174.167-.008.424,0,.847,0,1.271A.623.623,0,0,1,5.43,22H5.086c-.118-.046-.241-.08-.358-.132a.6.6,0,0,0-.575.015A1.9,1.9,0,0,1,3.793,22h-.3Z" transform="translate(0 0)"/><path class="b" d="M.043,18.067,0,18.075V1.08l.042,0c.094.1.069.23.07.349q0,1.907,0,3.814,0,6.2,0,12.41a.65.65,0,0,1-.07.417Z" transform="translate(0)"/><path class="b" d="M16.075,17.341V.641c0-.1,0-.2,0-.3.072.064.039.148.039.223q0,8.278,0,16.556c0,.075.032.16-.042.223Z" transform="translate(0)"/><path class="b" d="M16.079,20.543q0-.87,0-1.739c.013.024.038.048.038.071q0,.8,0,1.595c0,.024-.024.048-.036.073Z" transform="translate(0 0)"/><path class="b" d="M6.465,20.067q0,.409,0,.818A1.651,1.651,0,0,1,6.465,20.067Z" transform="translate(0 0)"/><path class="b" d="M6.465,20.067l1.528-.008a.409.409,0,0,0,.453-.38.428.428,0,0,0-.445-.4q-3.155,0-6.31,0a.428.428,0,0,0-.441.4.409.409,0,0,0,.439.374c.208,0,.416,0,.624,0,.092,0,.149.01.144.125-.008.2,0,.4,0,.6,0,.072-.011.131-.1.128A5.71,5.71,0,0,1,.9,20.837a1.123,1.123,0,0,1-.866-.995c0-.016-.026-.029-.039-.042v-.216a1.868,1.868,0,0,1,.257-.64,1.15,1.15,0,0,1,.931-.479q7.221,0,14.442,0c.3,0,.4.078.447.342a16.313,16.313,0,0,1,0,1.739.342.342,0,0,1-.318.339,1.579,1.579,0,0,1-.318.032q-4.366,0-8.731,0c-.083,0-.172.031-.249-.029a3.359,3.359,0,0,1,0-.818Zm4.368-.009a.4.4,0,0,0,.415-.367.392.392,0,0,0-.383-.406,7.031,7.031,0,0,0-.793,0,.386.386,0,1,0,.032.772c.121,0,.243,0,.364,0s.243,0,.364,0Z" transform="translate(0 0)"/><path class="b" d="M.043,18.067q0-8.495,0-16.989A1.161,1.161,0,0,1,1.131,0Q8.392.005,15.654,0c.281,0,.374.074.425.337A.536.536,0,0,1,16.1.573q0,8.268,0,16.535a.47.47,0,0,1-.02.233.38.38,0,0,1-.365.345c-.057,0-.115,0-.172,0q-6.88,0-13.76,0a2.928,2.928,0,0,0-1.735.386ZM10.8,14.84a.4.4,0,0,0,.45-.442c0-.288,0-.575,0-.863,0-.819-.223-1.048-1.041-1.067h-.022c-.112.017-.147-.03-.146-.144,0-.726,0-1.452,0-2.177,0-.1.025-.135.131-.14a2.3,2.3,0,0,0,1.921-1.128.37.37,0,0,1,.229-.167,2.023,2.023,0,0,0,1.044-.68A5.5,5.5,0,0,0,14.431,4.75a.731.731,0,0,0-.687-.693c-.273-.007-.546-.007-.818-.007a.414.414,0,0,1-.472-.449.764.764,0,0,0-.767-.752H6.022a.735.735,0,0,0-.725.576,1.483,1.483,0,0,0-.037.466c.005.122-.036.162-.159.16-.366,0-.732,0-1.1,0a.688.688,0,0,0-.6.354,1.029,1.029,0,0,0-.094.716A6.631,6.631,0,0,0,3.836,7.2a2.512,2.512,0,0,0,1.5,1.488.641.641,0,0,1,.354.275A2.261,2.261,0,0,0,7.521,10c.128.008.153.048.152.163,0,.647,0,1.294,0,1.94a.318.318,0,0,1-.36.359.812.812,0,0,0-.847.848q0,.518,0,1.035c0,.342.151.489.5.489H10.8ZM.862,10.146v6.274c0,.248.107.383.315.406.233.026.358-.07.435-.308a.858.858,0,0,0,.025-.276q0-7.405,0-14.811a.787.787,0,0,0,0-.172c-.03-.13-.042-.274-.17-.353A.339.339,0,0,0,1.086.862a.423.423,0,0,0-.227.4q.005,3.783,0,7.567v1.315Z" transform="translate(0)"/><path class="b" d="M11.672,3.625c0,1.4.036,2.8-.005,4.2a1.548,1.548,0,0,1-1.4,1.407c-.816.076-1.633.035-2.449.033a1.651,1.651,0,0,1-1.768-1.4.545.545,0,0,1-.013-.106q0-2.069.008-4.139A.28.28,0,0,1,6.21,3.6H11.5a.283.283,0,0,1,.168.02Z" transform="translate(0 0)"/><path class="b" d="M8.834,14.064c-.473,0-.947-.006-1.42,0-.145,0-.185-.044-.176-.182.011-.172.006-.345,0-.517,0-.092.027-.126.122-.125q1.5,0,2.991,0c.1,0,.131.036.12.126a.18.18,0,0,0,0,.022c0,.214.072.492-.034.626s-.4.04-.614.045c-.33.008-.66,0-.99,0Z" transform="translate(0 0)"/><path class="b" d="M13.655,4.833A4.14,4.14,0,0,1,12.525,7.8l-.063-.017V4.833a6.907,6.907,0,0,1,1.192,0Z" transform="translate(0 0)"/><path class="b" d="M5.251,4.833V7.847A4.215,4.215,0,0,1,4.058,4.833,6.907,6.907,0,0,1,5.251,4.833Z" transform="translate(0 0)"/><path class="b" d="M9.259,10.052c0,.76,0,1.52.009,2.279,0,.1-.025.15-.131.136a.353.353,0,0,0-.043,0c-.206-.005-.475.067-.6-.036s-.04-.39-.041-.594c0-.595,0-1.19,0-1.785a3.192,3.192,0,0,1,.8,0Z" transform="translate(0 0)"/><path class="b" d="M5.251,4.833H4.058c.048-.084.127-.04.19-.041q.416-.008.833,0c.056,0,.13-.041.169.041Z" transform="translate(0 0)"/><path class="b" d="M13.655,4.833H12.462c.039-.081.114-.044.169-.04A4.557,4.557,0,0,1,13.655,4.833Z" transform="translate(0 0)"/><path class="b" d="M9.259,10.052h-.8A1.567,1.567,0,0,1,9.259,10.052Z" transform="translate(0 0)"/></g></svg>