<svg width="25" height="24" viewBox="0 0 25 24" fill="none" xmlns="http://www.w3.org/2000/svg">
<g id="documentation 1" clip-path="url(#clip0_46_358)">
<g id="Group">
<path id="Vector" opacity="0.946" fill-rule="evenodd" clip-rule="evenodd" d="M5.77344 -0.0234375C9.60158 -0.0234375 13.4297 -0.0234375 17.2578 -0.0234375C17.4172 0.048608 17.5734 0.134545 17.7266 0.234375C18.5951 1.08727 19.4466 1.95445 20.2812 2.83594C20.3836 2.99373 20.4461 3.1656 20.4688 3.35156C20.4844 4.72655 20.5 6.10158 20.5156 7.47656C21.7208 8.88473 22.9083 10.3066 24.0781 11.7422C24.2775 12.059 24.4025 12.4028 24.4531 12.7734C24.4687 15.7422 24.4844 18.711 24.5 21.6797C24.6448 21.8007 24.7619 21.9413 24.8516 22.1016C24.8516 22.5547 24.8516 23.0078 24.8516 23.4609C24.7265 23.6797 24.5547 23.8515 24.3359 23.9766C22.8203 23.9766 21.3047 23.9766 19.7891 23.9766C19.5055 23.8723 19.3258 23.6692 19.25 23.3672C19.2187 22.9766 19.2187 22.5859 19.25 22.1953C19.2977 21.9745 19.4149 21.8026 19.6016 21.6797C19.6483 21.3845 19.6639 21.0876 19.6484 20.7891C15.1172 20.7891 10.586 20.7891 6.05469 20.7891C6.03922 21.0876 6.05487 21.3845 6.10156 21.6797C6.28822 21.8026 6.40541 21.9745 6.45312 22.1953C6.48439 22.5859 6.48439 22.9766 6.45312 23.3672C6.37733 23.6692 6.19766 23.8723 5.91406 23.9766C4.39844 23.9766 2.88281 23.9766 1.36719 23.9766C1.14844 23.8515 0.976563 23.6797 0.851562 23.4609C0.851562 23.0078 0.851562 22.5547 0.851562 22.1016C0.941167 21.9413 1.05835 21.8007 1.20312 21.6797C1.20395 18.6311 1.2352 15.5842 1.29688 12.5391C1.39045 12.1801 1.5467 11.852 1.76562 11.5547C2.90625 10.1953 4.04688 8.83594 5.1875 7.47656C5.20312 5.21095 5.21875 2.94531 5.23438 0.679688C5.30141 0.355312 5.4811 0.120937 5.77344 -0.0234375ZM6.05469 0.820312C9.64845 0.820312 13.2422 0.820312 16.8359 0.820312C16.8281 1.55485 16.8359 2.28923 16.8594 3.02344C16.9465 3.2981 17.1262 3.47779 17.3984 3.5625C18.1483 3.58593 18.8983 3.59375 19.6484 3.58594C19.6484 6.11719 19.6484 8.64844 19.6484 11.1797C18.7143 11.1211 18.1752 11.5586 18.0312 12.4922C18.0234 13.2188 18.0156 13.9453 18.0078 14.6719C18.0024 15.5093 18.0258 16.3453 18.0781 17.1797C18.1434 17.3572 18.2215 17.529 18.3125 17.6953C18.7684 18.2168 19.1903 18.7637 19.5781 19.3359C19.6285 19.5361 19.652 19.7392 19.6484 19.9453C15.1172 19.9453 10.586 19.9453 6.05469 19.9453C6.04053 19.6646 6.09519 19.399 6.21875 19.1484C6.60936 18.6641 7.00002 18.1797 7.39062 17.6953C7.48161 17.529 7.5597 17.3572 7.625 17.1797C7.67731 16.3453 7.70075 15.5093 7.69531 14.6719C7.68748 13.9453 7.6797 13.2188 7.67188 12.4922C7.52792 11.5586 6.98886 11.1211 6.05469 11.1797C6.05469 7.72655 6.05469 4.27344 6.05469 0.820312ZM17.6797 1.42969C18.1234 1.84989 18.5608 2.27958 18.9922 2.71875C18.555 2.74218 18.1175 2.74999 17.6797 2.74219C17.6797 2.30469 17.6797 1.86719 17.6797 1.42969ZM5.16406 8.78906C5.21856 9.7342 5.22637 10.6873 5.1875 11.6484C5.01715 11.8172 4.90778 12.0203 4.85938 12.2578C4.82812 13.1484 4.82812 14.0391 4.85938 14.9297C5.125 15.3047 5.39062 15.3047 5.65625 14.9297C5.67186 14.0859 5.68752 13.2422 5.70312 12.3984C5.86119 12.0735 6.119 11.9563 6.47656 12.0469C6.60936 12.1172 6.71094 12.2188 6.78125 12.3516C6.83417 13.123 6.85761 13.8965 6.85156 14.6719C6.84373 15.3672 6.83595 16.0625 6.82812 16.7578C6.80877 16.8859 6.7775 17.0109 6.73438 17.1328C6.34377 17.6172 5.95311 18.1016 5.5625 18.5859C5.43079 18.7712 5.33704 18.9744 5.28125 19.1953C5.21445 19.9743 5.19102 20.7555 5.21094 21.5391C4.16406 21.5391 3.11719 21.5391 2.07031 21.5391C2.0625 18.6484 2.07031 15.7578 2.09375 12.8672C2.15211 12.5943 2.26149 12.3443 2.42188 12.1172C3.34696 11.0129 4.26102 9.90347 5.16406 8.78906ZM20.4922 8.78906C21.4282 9.8895 22.3579 10.9989 23.2812 12.1172C23.4417 12.3443 23.551 12.5943 23.6094 12.8672C23.6328 15.7578 23.6406 18.6484 23.6328 21.5391C22.586 21.5391 21.539 21.5391 20.4922 21.5391C20.5121 20.7555 20.4887 19.9743 20.4219 19.1953C20.3661 18.9744 20.2723 18.7712 20.1406 18.5859C19.75 18.1016 19.3594 17.6172 18.9688 17.1328C18.9256 17.0109 18.8944 16.8859 18.875 16.7578C18.8672 16.0625 18.8594 15.3672 18.8516 14.6719C18.8455 13.8965 18.869 13.123 18.9219 12.3516C19.1553 12.0005 19.46 11.9302 19.8359 12.1406C19.8906 12.2265 19.9453 12.3125 20 12.3984C20.0156 13.2422 20.0313 14.0859 20.0469 14.9297C20.3125 15.3047 20.5781 15.3047 20.8438 14.9297C20.875 14.0391 20.875 13.1484 20.8438 12.2578C20.7953 12.0203 20.686 11.8172 20.5156 11.6484C20.4922 10.6954 20.4844 9.74231 20.4922 8.78906ZM1.69531 22.3828C3.00781 22.3828 4.32031 22.3828 5.63281 22.3828C5.63281 22.6328 5.63281 22.8828 5.63281 23.1328C4.32031 23.1328 3.00781 23.1328 1.69531 23.1328C1.69531 22.8828 1.69531 22.6328 1.69531 22.3828ZM20.0703 22.3828C21.3828 22.3828 22.6953 22.3828 24.0078 22.3828C24.0078 22.6328 24.0078 22.8828 24.0078 23.1328C22.6953 23.1328 21.3828 23.1328 20.0703 23.1328C20.0703 22.8828 20.0703 22.6328 20.0703 22.3828Z" fill="#061C28"/>
</g>
<g id="Group_2">
<path id="Vector_2" opacity="0.944" fill-rule="evenodd" clip-rule="evenodd" d="M7.97651 4.33594C11.2265 4.32812 14.4765 4.33594 17.7265 4.35938C18.0364 4.46286 18.1379 4.6738 18.0312 4.99219C17.9765 5.04689 17.9218 5.10155 17.8671 5.15625C14.5234 5.18752 11.1796 5.18752 7.83589 5.15625C7.6565 5.00119 7.60179 4.80591 7.67182 4.57031C7.75643 4.4613 7.85801 4.38317 7.97651 4.33594Z" fill="#061C28"/>
</g>
<g id="Group_3">
<path id="Vector_3" opacity="0.943" fill-rule="evenodd" clip-rule="evenodd" d="M7.92962 6.35157C11.2109 6.34374 14.4922 6.35157 17.7734 6.37501C17.9758 6.42765 18.0696 6.56044 18.0546 6.77344C18.0664 6.96108 17.9882 7.09388 17.8202 7.17188C14.5077 7.20315 11.1953 7.20315 7.88275 7.17188C7.71475 7.09388 7.63661 6.96108 7.64837 6.77344C7.6389 6.55655 7.73265 6.41593 7.92962 6.35157Z" fill="#061C28"/>
</g>
<g id="Group_4">
<path id="Vector_4" opacity="0.944" fill-rule="evenodd" clip-rule="evenodd" d="M7.88277 8.36719C11.1953 8.35937 14.5078 8.36719 17.8203 8.39063C17.9955 8.45621 18.0736 8.58123 18.0546 8.76563C18.0775 8.98594 17.9837 9.12657 17.7734 9.18751C14.4921 9.21877 11.2109 9.21877 7.92965 9.18751C7.72654 9.13308 7.63279 9.00024 7.6484 8.78907C7.64263 8.59712 7.72077 8.45649 7.88277 8.36719Z" fill="#061C28"/>
</g>
<g id="Group_5">
<path id="Vector_5" opacity="0.944" fill-rule="evenodd" clip-rule="evenodd" d="M7.97651 10.3359C11.2265 10.3281 14.4765 10.3359 17.7265 10.3594C18.0364 10.4629 18.1379 10.6738 18.0312 10.9922C17.9765 11.0469 17.9218 11.1016 17.8671 11.1563C14.5234 11.1875 11.1796 11.1875 7.83589 11.1563C7.6565 11.0012 7.60179 10.8059 7.67182 10.5703C7.75643 10.4613 7.85801 10.3832 7.97651 10.3359Z" fill="#061C28"/>
</g>
<g id="Group_6">
<path id="Vector_6" opacity="0.942" fill-rule="evenodd" clip-rule="evenodd" d="M8.7265 12.3516C11.4766 12.3437 14.2265 12.3516 16.9765 12.375C17.179 12.4276 17.2727 12.5604 17.2577 12.7734C17.2695 12.9611 17.1914 13.0939 17.0234 13.1719C14.2421 13.2031 11.4609 13.2031 8.67962 13.1719C8.51162 13.0939 8.43348 12.9611 8.44525 12.7734C8.43578 12.5566 8.52953 12.4159 8.7265 12.3516Z" fill="#061C28"/>
</g>
<g id="Group_7">
<path id="Vector_7" opacity="0.943" fill-rule="evenodd" clip-rule="evenodd" d="M8.67978 14.3672C11.4611 14.3594 14.2423 14.3672 17.0235 14.3906C17.2417 14.5264 17.312 14.7217 17.2345 14.9766C17.177 15.0809 17.091 15.1512 16.9767 15.1875C14.2266 15.2188 11.4767 15.2188 8.72666 15.1875C8.44016 15.0353 8.36984 14.8088 8.51572 14.5078C8.56939 14.4546 8.62409 14.4077 8.67978 14.3672Z" fill="#061C28"/>
</g>
<g id="Group_8">
<path id="Vector_8" opacity="0.938" fill-rule="evenodd" clip-rule="evenodd" d="M8.77355 16.3359C10.1486 16.3281 11.5237 16.3359 12.8985 16.3594C13.259 16.4634 13.3605 16.6899 13.2032 17.0391C13.1609 17.0954 13.1063 17.1345 13.0392 17.1563C11.5704 17.1875 10.1017 17.1875 8.63292 17.1563C8.45935 16.9971 8.40469 16.8017 8.46886 16.5703C8.55347 16.4613 8.65505 16.3832 8.77355 16.3359Z" fill="#061C28"/>
</g>
</g>
<defs>
<clipPath id="clip0_46_358">
<rect width="24" height="24" fill="white" transform="translate(0.875)"/>
</clipPath>
</defs>
</svg>
