<svg xmlns="http://www.w3.org/2000/svg" width="24" height="24" viewBox="0 0 24 24"><defs><style>.a{fill:none;}.b{fill:#2e2e2e;}</style></defs><rect class="a" width="24" height="24"/><g transform="translate(2.932 3.474)"><path class="b" d="M17.775,0a2.485,2.485,0,0,1,.359,1.467c-.035,1.127-.018,2.258-.009,3.387.005.717-.331,1.071-1.051,1.062-.435-.005-.87,0-1.3,0-1.182,0-1.157,0-1.141-1.162.005-.453.134-.625.59-.583.646.06.891-.282.815-.9a1.439,1.439,0,0,1,0-.174,1.184,1.184,0,0,0-1.321-1.36H4.369c-.435,0-.87.021-1.3-.005C2.39,1.7,2,1.916,2.1,2.668a2.5,2.5,0,0,1,0,.608c-.07.62.173.935.819.9.986-.053.47.7.569,1.1.111.46-.083.68-.6.648-.636-.041-1.275,0-1.913-.012a.867.867,0,0,1-.962-.969C.011,3.61.026,2.279,0,.947-.007.56.277.328.361,0Z" transform="translate(0)"/><path class="b" d="M13.682,9.376q0,3.13,0,6.259c0,.97-.269,1.254-1.206,1.256-2.466.005-4.931-.009-7.4.007-.8.005-1.155-.331-1.154-1.143.014-4.26,0-8.519.014-12.779,0-.262-.2-.719.366-.683.541.035.31.479.31.738q.024,5.389.007,10.78c0,.52-.032.984.708,1.025a.741.741,0,0,1,.666.7c.035.615.387.676.879.671q1.957-.024,3.917,0c.465.005.784-.083.817-.643a.737.737,0,0,1,.645-.713c.8-.041.738-.548.736-1.088q-.011-5.085,0-10.171a1.468,1.468,0,0,1,.007-.431c.1-.3-.3-.866.366-.851.588.014.3.537.308.812.028,2.085.016,4.172.016,6.259Z" transform="translate(0.261 0.153)"/><path class="b" d="M3.312,2.778c-.019.231.1.537-.331.548s-.359-.284-.354-.53c.005-.21-.086-.483.287-.509s.439.185.4.493Z" transform="translate(0.175 0.153)"/><path class="b" d="M14.419,2.815c0,.266.035.532-.379.511-.365-.018-.319-.266-.313-.488.007-.238-.1-.544.333-.553s.345.284.358.53Z" transform="translate(0.917 0.153)"/><path class="b" d="M5.235,8.249c0-1.766.021-3.533-.012-5.3-.011-.535.143-.69.68-.682,1.883.032,3.767.035,5.651,0,.571-.011.659.2.657.7q-.026,5.342,0,10.681c0,.394-.09.65-.479.78-.13.044-.3.134-.342.243-.352,1.043-1.21.828-1.985.826-.521,0-1.043,0-1.566,0a2.592,2.592,0,0,1-2.6-3c-.012-1.418,0-2.837,0-4.255ZM9.821,5.7A2.958,2.958,0,0,0,6.153,7.013a2.293,2.293,0,0,0,1.5,3.008A2.8,2.8,0,0,0,11.5,7.8,2.6,2.6,0,0,0,9.82,5.7Z" transform="translate(0.349 0.152)"/><path class="b" d="M8.592,9.348c-1.284-.007-2.043-.641-2.05-1.714-.007-1.148.77-1.781,2.173-1.765,1.272.014,2.011.66,2.006,1.754S9.938,9.356,8.592,9.348Z" transform="translate(0.437 0.392)"/></g></svg>